<?xml version="1.0" encoding="UTF-8" standalone="no"?>
<!DOCTYPE svg PUBLIC "-//W3C//DTD SVG 1.1//EN" "http://www.w3.org/Graphics/SVG/1.1/DTD/svg11.dtd">
<!-- Created with Vectornator (http://vectornator.io/) -->
<svg height="100%" stroke-miterlimit="10" style="fill-rule:nonzero;clip-rule:evenodd;stroke-linecap:round;stroke-linejoin:round;" version="1.1" viewBox="0 0 1080 1080" width="100%" xml:space="preserve" xmlns="http://www.w3.org/2000/svg" xmlns:vectornator="http://vectornator.io" xmlns:xlink="http://www.w3.org/1999/xlink">
<defs/>
<g id="Calque-1" vectornator:layerName="Calque 1">
<path d="M275.847 31.5399L320.13 31.5399L320.13 75.823L275.847 75.823L275.847 31.5399Z" fill="#150b14" fill-rule="nonzero" opacity="0.976596" stroke="none" vectornator:layerName="Rectangle 1"/>
<path d="M320.13 31.5399L364.413 31.5399L364.413 75.823L320.13 75.823L320.13 31.5399Z" fill="#150b14" fill-rule="nonzero" opacity="0.976596" stroke="none" vectornator:layerName="Rectangle 2"/>
<path d="M275.847 75.823L320.13 75.823L320.13 120.106L275.847 120.106L275.847 75.823Z" fill="#150b14" fill-rule="nonzero" opacity="0.976596" stroke="none" vectornator:layerName="Rectangle 3"/>
<path d="M364.413 75.823L408.696 75.823L408.696 120.106L364.413 120.106L364.413 75.823Z" fill="#150b14" fill-rule="nonzero" opacity="0.976596" stroke="none" vectornator:layerName="Rectangle 4"/>
<path d="M408.696 120.106L452.979 120.106L452.979 164.389L408.696 164.389L408.696 120.106Z" fill="#150b14" fill-rule="nonzero" opacity="0.976596" stroke="none" vectornator:layerName="Rectangle 5"/>
<path d="M408.696 164.389L452.979 164.389L452.979 208.672L408.696 208.672L408.696 164.389Z" fill="#150b14" fill-rule="nonzero" opacity="0.976596" stroke="none" vectornator:layerName="Rectangle 6"/>
<path d="M275.847 120.106L320.13 120.106L320.13 164.389L275.847 164.389L275.847 120.106Z" fill="#150b14" fill-rule="nonzero" opacity="0.976596" stroke="none" vectornator:layerName="Rectangle 7"/>
<path d="M275.847 164.389L320.13 164.389L320.13 208.672L275.847 208.672L275.847 164.389Z" fill="#150b14" fill-rule="nonzero" opacity="0.976596" stroke="none" vectornator:layerName="Rectangle 8"/>
<path d="M320.13 75.823L364.413 75.823L364.413 120.106L320.13 120.106L320.13 75.823Z" fill="#07960c" fill-rule="nonzero" opacity="0.976596" stroke="none" vectornator:layerName="Rectangle 92"/>
<path d="M320.13 120.106L364.413 120.106L364.413 164.389L320.13 164.389L320.13 120.106Z" fill="#07960c" fill-rule="nonzero" opacity="0.976596" stroke="none" vectornator:layerName="Rectangle 93"/>
<path d="M364.413 120.106L408.696 120.106L408.696 164.389L364.413 164.389L364.413 120.106Z" fill="#07960c" fill-rule="nonzero" opacity="0.976596" stroke="none" vectornator:layerName="Rectangle 94"/>
<path d="M408.696 208.672L452.979 208.672L452.979 252.955L408.696 252.955L408.696 208.672Z" fill="#07960c" fill-rule="nonzero" opacity="0.976596" stroke="none" vectornator:layerName="Rectangle 96"/>
<path d="M364.413 164.389L408.696 164.389L408.696 208.672L364.413 208.672L364.413 164.389Z" fill="#07960c" fill-rule="nonzero" opacity="0.976596" stroke="none" vectornator:layerName="Rectangle 95"/>
<path d="M585.828 164.389L630.111 164.389L630.111 208.672L585.828 208.672L585.828 164.389Z" fill="#07960c" fill-rule="nonzero" opacity="0.976596" stroke="none" vectornator:layerName="Rectangle 97"/>
<path d="M585.828 208.672L630.111 208.672L630.111 252.955L585.828 252.955L585.828 208.672Z" fill="#07960c" fill-rule="nonzero" opacity="0.976596" stroke="none" vectornator:layerName="Rectangle 98"/>
<path d="M541.545 208.672L585.828 208.672L585.828 252.955L541.545 252.955L541.545 208.672Z" fill="#07960c" fill-rule="nonzero" opacity="0.976596" stroke="none" vectornator:layerName="Rectangle 105"/>
<path d="M585.828 252.955L630.111 252.955L630.111 297.238L585.828 297.238L585.828 252.955Z" fill="#016204" fill-rule="nonzero" opacity="0.976596" stroke="none" vectornator:layerName="Rectangle 106"/>
<path d="M408.696 252.955L452.979 252.955L452.979 297.238L408.696 297.238L408.696 252.955Z" fill="#016204" fill-rule="nonzero" opacity="0.976596" stroke="none" vectornator:layerName="Rectangle 108"/>
<path d="M364.413 208.672L408.696 208.672L408.696 252.955L364.413 252.955L364.413 208.672Z" fill="#016204" fill-rule="nonzero" opacity="0.976596" stroke="none" vectornator:layerName="Rectangle 109"/>
<path d="M320.13 164.389L364.413 164.389L364.413 208.672L320.13 208.672L320.13 164.389Z" fill="#016204" fill-rule="nonzero" opacity="0.976596" stroke="none" vectornator:layerName="Rectangle 110"/>
<path d="M541.545 252.955L585.828 252.955L585.828 297.238L541.545 297.238L541.545 252.955Z" fill="#016204" fill-rule="nonzero" opacity="0.976596" stroke="none" vectornator:layerName="Rectangle 107"/>
<path d="M630.111 120.106L674.394 120.106L674.394 164.389L630.111 164.389L630.111 120.106Z" fill="#07960c" fill-rule="nonzero" opacity="0.976596" stroke="none" vectornator:layerName="Rectangle 99"/>
<path d="M630.111 164.389L674.394 164.389L674.394 208.672L630.111 208.672L630.111 164.389Z" fill="#07960c" fill-rule="nonzero" opacity="0.976596" stroke="none" vectornator:layerName="Rectangle 100"/>
<path d="M807.244 164.389L851.527 164.389L851.527 208.672L807.244 208.672L807.244 164.389Z" fill="#016204" fill-rule="nonzero" opacity="0.976596" stroke="none" vectornator:layerName="Rectangle 111"/>
<path d="M762.961 164.389L807.244 164.389L807.244 208.672L762.961 208.672L762.961 164.389Z" fill="#016204" fill-rule="nonzero" opacity="0.976596" stroke="none" vectornator:layerName="Rectangle 112"/>
<path d="M630.111 208.672L674.394 208.672L674.394 252.955L630.111 252.955L630.111 208.672Z" fill="#016204" fill-rule="nonzero" opacity="0.976596" stroke="none" vectornator:layerName="Rectangle 113"/>
<path d="M674.394 208.672L718.677 208.672L718.677 252.955L674.394 252.955L674.394 208.672Z" fill="#016204" fill-rule="nonzero" opacity="0.976596" stroke="none" vectornator:layerName="Rectangle 114"/>
<path d="M718.677 208.672L762.961 208.672L762.961 252.955L718.677 252.955L718.677 208.672Z" fill="#016204" fill-rule="nonzero" opacity="0.976596" stroke="none" vectornator:layerName="Rectangle 115"/>
<path d="M674.394 120.106L718.677 120.106L718.677 164.389L674.394 164.389L674.394 120.106Z" fill="#07960c" fill-rule="nonzero" opacity="0.976596" stroke="none" vectornator:layerName="Rectangle 101"/>
<path d="M674.394 164.389L718.677 164.389L718.677 208.672L674.394 208.672L674.394 164.389Z" fill="#07960c" fill-rule="nonzero" opacity="0.976596" stroke="none" vectornator:layerName="Rectangle 102"/>
<path d="M718.677 120.106L762.961 120.106L762.961 164.389L718.677 164.389L718.677 120.106Z" fill="#07960c" fill-rule="nonzero" opacity="0.976596" stroke="none" vectornator:layerName="Rectangle 103"/>
<path d="M718.677 164.389L762.961 164.389L762.961 208.672L718.677 208.672L718.677 164.389Z" fill="#07960c" fill-rule="nonzero" opacity="0.976596" stroke="none" vectornator:layerName="Rectangle 104"/>
<path d="M320.13 208.672L364.413 208.672L364.413 252.955L320.13 252.955L320.13 208.672Z" fill="#150b14" fill-rule="nonzero" opacity="0.976596" stroke="none" vectornator:layerName="Rectangle 9"/>
<path d="M364.413 252.955L408.696 252.955L408.696 297.238L364.413 297.238L364.413 252.955Z" fill="#150b14" fill-rule="nonzero" opacity="0.976596" stroke="none" vectornator:layerName="Rectangle 10"/>
<path d="M320.13 252.955L364.413 252.955L364.413 297.238L320.13 297.238L320.13 252.955Z" fill="#150b14" fill-rule="nonzero" opacity="0.976596" stroke="none" vectornator:layerName="Rectangle 15"/>
<path d="M275.847 252.955L320.13 252.955L320.13 297.238L275.847 297.238L275.847 252.955Z" fill="#150b14" fill-rule="nonzero" opacity="0.976596" stroke="none" vectornator:layerName="Rectangle 16"/>
<path d="M231.564 252.955L275.847 252.955L275.847 297.238L231.564 297.238L231.564 252.955Z" fill="#150b14" fill-rule="nonzero" opacity="0.976596" stroke="none" vectornator:layerName="Rectangle 17"/>
<path d="M364.413 297.238L408.696 297.238L408.696 341.521L364.413 341.521L364.413 297.238Z" fill="#150b14" fill-rule="nonzero" opacity="0.976596" stroke="none" vectornator:layerName="Rectangle 18"/>
<path d="M408.696 297.238L452.979 297.238L452.979 341.521L408.696 341.521L408.696 297.238Z" fill="#150b14" fill-rule="nonzero" opacity="0.976596" stroke="none" vectornator:layerName="Rectangle 19"/>
<path d="M452.979 297.238L497.262 297.238L497.262 341.521L452.979 341.521L452.979 297.238Z" fill="#150b14" fill-rule="nonzero" opacity="0.976596" stroke="none" vectornator:layerName="Rectangle 20"/>
<path d="M452.979 208.672L497.262 208.672L497.262 252.955L452.979 252.955L452.979 208.672Z" fill="#150b14" fill-rule="nonzero" opacity="0.976596" stroke="none" vectornator:layerName="Rectangle 11"/>
<path d="M452.979 252.955L497.262 252.955L497.262 297.238L452.979 297.238L452.979 252.955Z" fill="#150b14" fill-rule="nonzero" opacity="0.976596" stroke="none" vectornator:layerName="Rectangle 12"/>
<path d="M497.262 208.672L541.545 208.672L541.545 252.955L497.262 252.955L497.262 208.672Z" fill="#150b14" fill-rule="nonzero" opacity="0.976596" stroke="none" vectornator:layerName="Rectangle 13"/>
<path d="M497.262 252.955L541.545 252.955L541.545 297.238L497.262 297.238L497.262 252.955Z" fill="#150b14" fill-rule="nonzero" opacity="0.976596" stroke="none" vectornator:layerName="Rectangle 14"/>
<path d="M497.262 297.238L541.545 297.238L541.545 341.521L497.262 341.521L497.262 297.238Z" fill="#150b14" fill-rule="nonzero" opacity="0.976596" stroke="none" vectornator:layerName="Rectangle 21"/>
<path d="M541.545 164.389L585.828 164.389L585.828 208.672L541.545 208.672L541.545 164.389Z" fill="#150b14" fill-rule="nonzero" opacity="0.976596" stroke="none" vectornator:layerName="Rectangle 22"/>
<path d="M585.828 120.106L630.111 120.106L630.111 164.389L585.828 164.389L585.828 120.106Z" fill="#150b14" fill-rule="nonzero" opacity="0.976596" stroke="none" vectornator:layerName="Rectangle 23"/>
<path d="M630.111 75.823L674.394 75.823L674.394 120.106L630.111 120.106L630.111 75.823Z" fill="#150b14" fill-rule="nonzero" opacity="0.976596" stroke="none" vectornator:layerName="Rectangle 24"/>
<path d="M674.394 75.823L718.677 75.823L718.677 120.106L674.394 120.106L674.394 75.823Z" fill="#150b14" fill-rule="nonzero" opacity="0.976596" stroke="none" vectornator:layerName="Rectangle 25"/>
<path d="M718.677 75.823L762.961 75.823L762.961 120.106L718.677 120.106L718.677 75.823Z" fill="#150b14" fill-rule="nonzero" opacity="0.976596" stroke="none" vectornator:layerName="Rectangle 26"/>
<path d="M762.961 120.106L807.244 120.106L807.244 164.389L762.961 164.389L762.961 120.106Z" fill="#150b14" fill-rule="nonzero" opacity="0.976596" stroke="none" vectornator:layerName="Rectangle 27"/>
<path d="M807.244 120.106L851.527 120.106L851.527 164.389L807.244 164.389L807.244 120.106Z" fill="#150b14" fill-rule="nonzero" opacity="0.976596" stroke="none" vectornator:layerName="Rectangle 28"/>
<path d="M851.527 164.389L895.81 164.389L895.81 208.672L851.527 208.672L851.527 164.389Z" fill="#150b14" fill-rule="nonzero" opacity="0.976596" stroke="none" vectornator:layerName="Rectangle 29"/>
<path d="M807.244 208.672L851.527 208.672L851.527 252.955L807.244 252.955L807.244 208.672Z" fill="#150b14" fill-rule="nonzero" opacity="0.976596" stroke="none" vectornator:layerName="Rectangle 30"/>
<path d="M762.961 208.672L807.244 208.672L807.244 252.955L762.961 252.955L762.961 208.672Z" fill="#150b14" fill-rule="nonzero" opacity="0.976596" stroke="none" vectornator:layerName="Rectangle 31"/>
<path d="M718.677 252.955L762.961 252.955L762.961 297.238L718.677 297.238L718.677 252.955Z" fill="#150b14" fill-rule="nonzero" opacity="0.976596" stroke="none" vectornator:layerName="Rectangle 32"/>
<path d="M674.394 252.955L718.677 252.955L718.677 297.238L674.394 297.238L674.394 252.955Z" fill="#150b14" fill-rule="nonzero" opacity="0.976596" stroke="none" vectornator:layerName="Rectangle 33"/>
<path d="M630.111 252.955L674.394 252.955L674.394 297.238L630.111 297.238L630.111 252.955Z" fill="#150b14" fill-rule="nonzero" opacity="0.976596" stroke="none" vectornator:layerName="Rectangle 34"/>
<path d="M541.545 297.238L585.828 297.238L585.828 341.521L541.545 341.521L541.545 297.238Z" fill="#150b14" fill-rule="nonzero" opacity="0.976596" stroke="none" vectornator:layerName="Rectangle 35"/>
<path d="M585.828 297.238L630.111 297.238L630.111 341.521L585.828 341.521L585.828 297.238Z" fill="#150b14" fill-rule="nonzero" opacity="0.976596" stroke="none" vectornator:layerName="Rectangle 36"/>
<path d="M762.961 297.238L807.244 297.238L807.244 341.521L762.961 341.521L762.961 297.238Z" fill="#150b14" fill-rule="nonzero" opacity="0.976596" stroke="none" vectornator:layerName="Rectangle 37"/>
<path d="M807.244 341.521L851.527 341.521L851.527 385.804L807.244 385.804L807.244 341.521Z" fill="#150b14" fill-rule="nonzero" opacity="0.976596" stroke="none" vectornator:layerName="Rectangle 38"/>
<path d="M187.281 297.238L231.564 297.238L231.564 341.521L187.281 341.521L187.281 297.238Z" fill="#150b14" fill-rule="nonzero" opacity="0.976596" stroke="none" vectornator:layerName="Rectangle 39"/>
<path d="M142.998 341.521L187.281 341.521L187.281 385.804L142.998 385.804L142.998 341.521Z" fill="#150b14" fill-rule="nonzero" opacity="0.976596" stroke="none" vectornator:layerName="Rectangle 40"/>
<path d="M98.7147 385.009L142.998 385.009L142.998 429.292L98.7147 429.292L98.7147 385.009Z" fill="#150b14" fill-rule="nonzero" opacity="0.976596" stroke="none" vectornator:layerName="Rectangle 41"/>
<path d="M98.7147 429.292L142.998 429.292L142.998 473.575L98.7147 473.575L98.7147 429.292Z" fill="#150b14" fill-rule="nonzero" opacity="0.976596" stroke="none" vectornator:layerName="Rectangle 42"/>
<path d="M98.7147 473.575L142.998 473.575L142.998 517.858L98.7147 517.858L98.7147 473.575Z" fill="#150b14" fill-rule="nonzero" opacity="0.976596" stroke="none" vectornator:layerName="Rectangle 43"/>
<path d="M98.7147 517.858L142.998 517.858L142.998 562.142L98.7147 562.142L98.7147 517.858Z" fill="#150b14" fill-rule="nonzero" opacity="0.976596" stroke="none" vectornator:layerName="Rectangle 44"/>
<path d="M98.7147 562.142L142.998 562.142L142.998 606.425L98.7147 606.425L98.7147 562.142Z" fill="#150b14" fill-rule="nonzero" opacity="0.976596" stroke="none" vectornator:layerName="Rectangle 45"/>
<path d="M142.998 385.009L187.281 385.009L187.281 429.292L142.998 429.292L142.998 385.009Z" fill="#ef5f5f" fill-rule="nonzero" opacity="0.976596" stroke="none" vectornator:layerName="Rectangle 116"/>
<path d="M142.998 429.292L187.281 429.292L187.281 473.575L142.998 473.575L142.998 429.292Z" fill="#ef5f5f" fill-rule="nonzero" opacity="0.976596" stroke="none" vectornator:layerName="Rectangle 117"/>
<path d="M142.998 473.575L187.281 473.575L187.281 517.858L142.998 517.858L142.998 473.575Z" fill="#ef5f5f" fill-rule="nonzero" opacity="0.976596" stroke="none" vectornator:layerName="Rectangle 118"/>
<path d="M142.998 517.858L187.281 517.858L187.281 562.142L142.998 562.142L142.998 517.858Z" fill="#ef5f5f" fill-rule="nonzero" opacity="0.976596" stroke="none" vectornator:layerName="Rectangle 119"/>
<path d="M142.998 562.142L187.281 562.142L187.281 606.425L142.998 606.425L142.998 562.142Z" fill="#ef5f5f" fill-rule="nonzero" opacity="0.976596" stroke="none" vectornator:layerName="Rectangle 120"/>
<path d="M187.281 341.521L231.564 341.521L231.564 385.804L187.281 385.804L187.281 341.521Z" fill="#ef5f5f" fill-rule="nonzero" opacity="0.976596" stroke="none" vectornator:layerName="Rectangle 121"/>
<path d="M187.281 385.804L231.564 385.804L231.564 430.087L187.281 430.087L187.281 385.804Z" fill="#ef5f5f" fill-rule="nonzero" opacity="0.976596" stroke="none" vectornator:layerName="Rectangle 122"/>
<path d="M187.281 430.087L231.564 430.087L231.564 474.37L187.281 474.37L187.281 430.087Z" fill="#ef5f5f" fill-rule="nonzero" opacity="0.976596" stroke="none" vectornator:layerName="Rectangle 123"/>
<path d="M187.281 474.37L231.564 474.37L231.564 518.654L187.281 518.654L187.281 474.37Z" fill="#ef5f5f" fill-rule="nonzero" opacity="0.976596" stroke="none" vectornator:layerName="Rectangle 124"/>
<path d="M187.281 518.654L231.564 518.654L231.564 562.937L187.281 562.937L187.281 518.654Z" fill="#ef5f5f" fill-rule="nonzero" opacity="0.976596" stroke="none" vectornator:layerName="Rectangle 125"/>
<path d="M231.564 297.238L275.847 297.238L275.847 341.521L231.564 341.521L231.564 297.238Z" fill="#ef5f5f" fill-rule="nonzero" opacity="0.976596" stroke="none" vectornator:layerName="Rectangle 126"/>
<path d="M231.564 341.521L275.847 341.521L275.847 385.804L231.564 385.804L231.564 341.521Z" fill="#ef5f5f" fill-rule="nonzero" opacity="0.976596" stroke="none" vectornator:layerName="Rectangle 127"/>
<path d="M231.564 385.804L275.847 385.804L275.847 430.087L231.564 430.087L231.564 385.804Z" fill="#ef5f5f" fill-rule="nonzero" opacity="0.976596" stroke="none" vectornator:layerName="Rectangle 128"/>
<path d="M231.564 430.087L275.847 430.087L275.847 474.37L231.564 474.37L231.564 430.087Z" fill="#ef5f5f" fill-rule="nonzero" opacity="0.976596" stroke="none" vectornator:layerName="Rectangle 129"/>
<path d="M231.564 474.37L275.847 474.37L275.847 518.654L231.564 518.654L231.564 474.37Z" fill="#ef5f5f" fill-rule="nonzero" opacity="0.976596" stroke="none" vectornator:layerName="Rectangle 130"/>
<path d="M275.847 297.238L320.13 297.238L320.13 341.521L275.847 341.521L275.847 297.238Z" fill="#ef5f5f" fill-rule="nonzero" opacity="0.976596" stroke="none" vectornator:layerName="Rectangle 131"/>
<path d="M275.847 341.521L320.13 341.521L320.13 385.804L275.847 385.804L275.847 341.521Z" fill="#ef5f5f" fill-rule="nonzero" opacity="0.976596" stroke="none" vectornator:layerName="Rectangle 132"/>
<path d="M275.847 385.804L320.13 385.804L320.13 430.087L275.847 430.087L275.847 385.804Z" fill="#ef5f5f" fill-rule="nonzero" opacity="0.976596" stroke="none" vectornator:layerName="Rectangle 133"/>
<path d="M275.847 430.087L320.13 430.087L320.13 474.37L275.847 474.37L275.847 430.087Z" fill="#ef5f5f" fill-rule="nonzero" opacity="0.976596" stroke="none" vectornator:layerName="Rectangle 134"/>
<path d="M275.847 474.37L320.13 474.37L320.13 518.654L275.847 518.654L275.847 474.37Z" fill="#ef5f5f" fill-rule="nonzero" opacity="0.976596" stroke="none" vectornator:layerName="Rectangle 135"/>
<path d="M320.13 297.238L364.413 297.238L364.413 341.521L320.13 341.521L320.13 297.238Z" fill="#ef5f5f" fill-rule="nonzero" opacity="0.976596" stroke="none" vectornator:layerName="Rectangle 136"/>
<path d="M320.13 341.521L364.413 341.521L364.413 385.804L320.13 385.804L320.13 341.521Z" fill="#ef5f5f" fill-rule="nonzero" opacity="0.976596" stroke="none" vectornator:layerName="Rectangle 137"/>
<path d="M320.13 385.804L364.413 385.804L364.413 430.087L320.13 430.087L320.13 385.804Z" fill="#ef5f5f" fill-rule="nonzero" opacity="0.976596" stroke="none" vectornator:layerName="Rectangle 138"/>
<path d="M320.13 430.087L364.413 430.087L364.413 474.37L320.13 474.37L320.13 430.087Z" fill="#ef5f5f" fill-rule="nonzero" opacity="0.976596" stroke="none" vectornator:layerName="Rectangle 139"/>
<path d="M320.13 474.37L364.413 474.37L364.413 518.654L320.13 518.654L320.13 474.37Z" fill="#ef5f5f" fill-rule="nonzero" opacity="0.976596" stroke="none" vectornator:layerName="Rectangle 140"/>
<path d="M364.413 341.521L408.696 341.521L408.696 385.804L364.413 385.804L364.413 341.521Z" fill="#ef5f5f" fill-rule="nonzero" opacity="0.976596" stroke="none" vectornator:layerName="Rectangle 141"/>
<path d="M364.413 385.804L408.696 385.804L408.696 430.087L364.413 430.087L364.413 385.804Z" fill="#ef5f5f" fill-rule="nonzero" opacity="0.976596" stroke="none" vectornator:layerName="Rectangle 142"/>
<path d="M364.413 430.087L408.696 430.087L408.696 474.37L364.413 474.37L364.413 430.087Z" fill="#ef5f5f" fill-rule="nonzero" opacity="0.976596" stroke="none" vectornator:layerName="Rectangle 143"/>
<path d="M364.413 474.37L408.696 474.37L408.696 518.654L364.413 518.654L364.413 474.37Z" fill="#ef5f5f" fill-rule="nonzero" opacity="0.976596" stroke="none" vectornator:layerName="Rectangle 144"/>
<path d="M364.413 518.654L408.696 518.654L408.696 562.937L364.413 562.937L364.413 518.654Z" fill="#ef5f5f" fill-rule="nonzero" opacity="0.976596" stroke="none" vectornator:layerName="Rectangle 145"/>
<path d="M408.696 341.521L452.979 341.521L452.979 385.804L408.696 385.804L408.696 341.521Z" fill="#ef5f5f" fill-rule="nonzero" opacity="0.976596" stroke="none" vectornator:layerName="Rectangle 146"/>
<path d="M408.696 385.804L452.979 385.804L452.979 430.087L408.696 430.087L408.696 385.804Z" fill="#ef5f5f" fill-rule="nonzero" opacity="0.976596" stroke="none" vectornator:layerName="Rectangle 147"/>
<path d="M408.696 430.087L452.979 430.087L452.979 474.37L408.696 474.37L408.696 430.087Z" fill="#ef5f5f" fill-rule="nonzero" opacity="0.976596" stroke="none" vectornator:layerName="Rectangle 148"/>
<path d="M408.696 474.37L452.979 474.37L452.979 518.654L408.696 518.654L408.696 474.37Z" fill="#ef5f5f" fill-rule="nonzero" opacity="0.976596" stroke="none" vectornator:layerName="Rectangle 149"/>
<path d="M408.696 518.654L452.979 518.654L452.979 562.937L408.696 562.937L408.696 518.654Z" fill="#ef5f5f" fill-rule="nonzero" opacity="0.976596" stroke="none" vectornator:layerName="Rectangle 150"/>
<path d="M541.545 341.521L585.828 341.521L585.828 385.804L541.545 385.804L541.545 341.521Z" fill="#ef5f5f" fill-rule="nonzero" opacity="0.976596" stroke="none" vectornator:layerName="Rectangle 151"/>
<path d="M541.545 385.804L585.828 385.804L585.828 430.087L541.545 430.087L541.545 385.804Z" fill="#ef5f5f" fill-rule="nonzero" opacity="0.976596" stroke="none" vectornator:layerName="Rectangle 152"/>
<path d="M541.545 430.087L585.828 430.087L585.828 474.37L541.545 474.37L541.545 430.087Z" fill="#ef5f5f" fill-rule="nonzero" opacity="0.976596" stroke="none" vectornator:layerName="Rectangle 153"/>
<path d="M541.545 474.37L585.828 474.37L585.828 518.654L541.545 518.654L541.545 474.37Z" fill="#ef5f5f" fill-rule="nonzero" opacity="0.976596" stroke="none" vectornator:layerName="Rectangle 154"/>
<path d="M541.545 518.654L585.828 518.654L585.828 562.937L541.545 562.937L541.545 518.654Z" fill="#ef5f5f" fill-rule="nonzero" opacity="0.976596" stroke="none" vectornator:layerName="Rectangle 155"/>
<path d="M452.979 341.521L497.262 341.521L497.262 385.804L452.979 385.804L452.979 341.521Z" fill="#ef5f5f" fill-rule="nonzero" opacity="0.976596" stroke="none" vectornator:layerName="Rectangle 156"/>
<path d="M452.979 385.804L497.262 385.804L497.262 430.087L452.979 430.087L452.979 385.804Z" fill="#ef5f5f" fill-rule="nonzero" opacity="0.976596" stroke="none" vectornator:layerName="Rectangle 157"/>
<path d="M452.979 430.087L497.262 430.087L497.262 474.37L452.979 474.37L452.979 430.087Z" fill="#ef5f5f" fill-rule="nonzero" opacity="0.976596" stroke="none" vectornator:layerName="Rectangle 158"/>
<path d="M452.979 474.37L497.262 474.37L497.262 518.654L452.979 518.654L452.979 474.37Z" fill="#ef5f5f" fill-rule="nonzero" opacity="0.976596" stroke="none" vectornator:layerName="Rectangle 159"/>
<path d="M452.979 518.654L497.262 518.654L497.262 562.937L452.979 562.937L452.979 518.654Z" fill="#ef5f5f" fill-rule="nonzero" opacity="0.976596" stroke="none" vectornator:layerName="Rectangle 160"/>
<path d="M497.262 341.521L541.545 341.521L541.545 385.804L497.262 385.804L497.262 341.521Z" fill="#ef5f5f" fill-rule="nonzero" opacity="0.976596" stroke="none" vectornator:layerName="Rectangle 161"/>
<path d="M497.262 385.804L541.545 385.804L541.545 430.087L497.262 430.087L497.262 385.804Z" fill="#ef5f5f" fill-rule="nonzero" opacity="0.976596" stroke="none" vectornator:layerName="Rectangle 162"/>
<path d="M497.262 430.087L541.545 430.087L541.545 474.37L497.262 474.37L497.262 430.087Z" fill="#ef5f5f" fill-rule="nonzero" opacity="0.976596" stroke="none" vectornator:layerName="Rectangle 163"/>
<path d="M497.262 474.37L541.545 474.37L541.545 518.654L497.262 518.654L497.262 474.37Z" fill="#ef5f5f" fill-rule="nonzero" opacity="0.976596" stroke="none" vectornator:layerName="Rectangle 164"/>
<path d="M497.262 518.654L541.545 518.654L541.545 562.937L497.262 562.937L497.262 518.654Z" fill="#ef5f5f" fill-rule="nonzero" opacity="0.976596" stroke="none" vectornator:layerName="Rectangle 165"/>
<path d="M98.7147 606.425L142.998 606.425L142.998 650.708L98.7147 650.708L98.7147 606.425Z" fill="#150b14" fill-rule="nonzero" opacity="0.976596" stroke="none" vectornator:layerName="Rectangle 46"/>
<path d="M98.7147 650.708L142.998 650.708L142.998 694.991L98.7147 694.991L98.7147 650.708Z" fill="#150b14" fill-rule="nonzero" opacity="0.976596" stroke="none" vectornator:layerName="Rectangle 47"/>
<path d="M851.527 386.777L895.81 386.777L895.81 431.06L851.527 431.06L851.527 386.777Z" fill="#150b14" fill-rule="nonzero" opacity="0.976596" stroke="none" vectornator:layerName="Rectangle 83"/>
<path d="M851.527 431.06L895.81 431.06L895.81 475.343L851.527 475.343L851.527 431.06Z" fill="#150b14" fill-rule="nonzero" opacity="0.976596" stroke="none" vectornator:layerName="Rectangle 84"/>
<path d="M851.527 475.343L895.81 475.343L895.81 519.626L851.527 519.626L851.527 475.343Z" fill="#150b14" fill-rule="nonzero" opacity="0.976596" stroke="none" vectornator:layerName="Rectangle 85"/>
<path d="M851.527 519.626L895.81 519.626L895.81 563.909L851.527 563.909L851.527 519.626Z" fill="#150b14" fill-rule="nonzero" opacity="0.976596" stroke="none" vectornator:layerName="Rectangle 86"/>
<path d="M851.527 563.909L895.81 563.909L895.81 608.192L851.527 608.192L851.527 563.909Z" fill="#150b14" fill-rule="nonzero" opacity="0.976596" stroke="none" vectornator:layerName="Rectangle 87"/>
<path d="M851.527 608.192L895.81 608.192L895.81 652.475L851.527 652.475L851.527 608.192Z" fill="#150b14" fill-rule="nonzero" opacity="0.976596" stroke="none" vectornator:layerName="Rectangle 88"/>
<path d="M851.527 652.475L895.81 652.475L895.81 696.758L851.527 696.758L851.527 652.475Z" fill="#150b14" fill-rule="nonzero" opacity="0.976596" stroke="none" vectornator:layerName="Rectangle 89"/>
<path d="M320.13 916.406L320.13 960.689L275.847 960.689L275.847 916.406L320.13 916.406Z" fill="#150b14" fill-rule="nonzero" opacity="0.976596" stroke="none" vectornator:layerName="Rectangle 55"/>
<path d="M275.847 916.406L275.847 960.689L231.564 960.689L231.564 916.406L275.847 916.406Z" fill="#150b14" fill-rule="nonzero" opacity="0.976596" stroke="none" vectornator:layerName="Rectangle 56"/>
<path d="M187.281 827.84L231.564 827.84L231.564 872.123L187.281 872.123L187.281 827.84Z" fill="#150b14" fill-rule="nonzero" opacity="0.976596" stroke="none" vectornator:layerName="Rectangle 57"/>
<path d="M187.281 872.123L231.564 872.123L231.564 916.406L187.281 916.406L187.281 872.123Z" fill="#150b14" fill-rule="nonzero" opacity="0.976596" stroke="none" vectornator:layerName="Rectangle 58"/>
<path d="M142.998 694.991L187.281 694.991L187.281 739.274L142.998 739.274L142.998 694.991Z" fill="#150b14" fill-rule="nonzero" opacity="0.976596" stroke="none" vectornator:layerName="Rectangle 59"/>
<path d="M142.998 739.274L187.281 739.274L187.281 783.557L142.998 783.557L142.998 739.274Z" fill="#150b14" fill-rule="nonzero" opacity="0.976596" stroke="none" vectornator:layerName="Rectangle 60"/>
<path d="M142.998 783.557L187.281 783.557L187.281 827.84L142.998 827.84L142.998 783.557Z" fill="#150b14" fill-rule="nonzero" opacity="0.976596" stroke="none" vectornator:layerName="Rectangle 61"/>
<path d="M320.13 916.406L320.13 960.689L275.847 960.689L275.847 916.406L320.13 916.406Z" fill="#150b14" fill-rule="nonzero" opacity="0.976596" stroke="none" vectornator:layerName="Rectangle 69"/>
<path d="M275.847 916.406L275.847 960.689L231.564 960.689L231.564 916.406L275.847 916.406Z" fill="#150b14" fill-rule="nonzero" opacity="0.976596" stroke="none" vectornator:layerName="Rectangle 70"/>
<path d="M187.281 872.123L231.564 872.123L231.564 916.406L187.281 916.406L187.281 872.123Z" fill="#150b14" fill-rule="nonzero" opacity="0.976596" stroke="none" vectornator:layerName="Rectangle 72"/>
<path d="M142.998 694.991L187.281 694.991L187.281 739.274L142.998 739.274L142.998 694.991Z" fill="#150b14" fill-rule="nonzero" opacity="0.976596" stroke="none" vectornator:layerName="Rectangle 73"/>
<path d="M142.998 739.274L187.281 739.274L187.281 783.557L142.998 783.557L142.998 739.274Z" fill="#150b14" fill-rule="nonzero" opacity="0.976596" stroke="none" vectornator:layerName="Rectangle 74"/>
<path d="M142.998 783.557L187.281 783.557L187.281 827.84L142.998 827.84L142.998 783.557Z" fill="#150b14" fill-rule="nonzero" opacity="0.976596" stroke="none" vectornator:layerName="Rectangle 75"/>
<path d="M630.111 960.689L630.111 1004.97L585.828 1004.97L585.828 960.689L630.111 960.689Z" fill="#150b14" fill-rule="nonzero" opacity="0.976596" stroke="none" vectornator:layerName="Rectangle 62"/>
<path d="M674.394 960.689L674.394 1004.97L630.111 1004.97L630.111 960.689L674.394 960.689Z" fill="#150b14" fill-rule="nonzero" opacity="0.976596" stroke="none" vectornator:layerName="Rectangle 90"/>
<path d="M585.828 960.689L585.828 1004.97L541.545 1004.97L541.545 960.689L585.828 960.689Z" fill="#150b14" fill-rule="nonzero" opacity="0.976596" stroke="none" vectornator:layerName="Rectangle 63"/>
<path d="M541.545 960.689L541.545 1004.97L497.262 1004.97L497.262 960.689L541.545 960.689Z" fill="#150b14" fill-rule="nonzero" opacity="0.976596" stroke="none" vectornator:layerName="Rectangle 64"/>
<path d="M497.262 960.689L497.262 1004.97L452.979 1004.97L452.979 960.689L497.262 960.689Z" fill="#150b14" fill-rule="nonzero" opacity="0.976596" stroke="none" vectornator:layerName="Rectangle 65"/>
<path d="M452.979 960.689L452.979 1004.97L408.696 1004.97L408.696 960.689L452.979 960.689Z" fill="#150b14" fill-rule="nonzero" opacity="0.976596" stroke="none" vectornator:layerName="Rectangle 66"/>
<path d="M408.696 960.689L408.696 1004.97L364.413 1004.97L364.413 960.689L408.696 960.689Z" fill="#150b14" fill-rule="nonzero" opacity="0.976596" stroke="none" vectornator:layerName="Rectangle 67"/>
<path d="M364.413 960.689L364.413 1004.97L320.13 1004.97L320.13 960.689L364.413 960.689Z" fill="#150b14" fill-rule="nonzero" opacity="0.976596" stroke="none" vectornator:layerName="Rectangle 68"/>
<path d="M762.961 916.406L762.961 960.689L718.677 960.689L718.677 916.406L762.961 916.406Z" fill="#150b14" fill-rule="nonzero" opacity="0.976596" stroke="none" vectornator:layerName="Rectangle 76"/>
<path d="M718.677 916.406L718.677 960.689L674.394 960.689L674.394 916.406L718.677 916.406Z" fill="#150b14" fill-rule="nonzero" opacity="0.976596" stroke="none" vectornator:layerName="Rectangle 77"/>
<path d="M762.961 827.84L807.244 827.84L807.244 872.123L762.961 872.123L762.961 827.84Z" fill="#150b14" fill-rule="nonzero" opacity="0.976596" stroke="none" vectornator:layerName="Rectangle 78"/>
<path d="M762.961 872.123L807.244 872.123L807.244 916.406L762.961 916.406L762.961 872.123Z" fill="#150b14" fill-rule="nonzero" opacity="0.976596" stroke="none" vectornator:layerName="Rectangle 79"/>
<path d="M807.244 694.991L851.527 694.991L851.527 739.274L807.244 739.274L807.244 694.991Z" fill="#150b14" fill-rule="nonzero" opacity="0.976596" stroke="none" vectornator:layerName="Rectangle 80"/>
<path d="M807.244 739.274L851.527 739.274L851.527 783.557L807.244 783.557L807.244 739.274Z" fill="#150b14" fill-rule="nonzero" opacity="0.976596" stroke="none" vectornator:layerName="Rectangle 81"/>
<path d="M807.244 783.557L851.527 783.557L851.527 827.84L807.244 827.84L807.244 783.557Z" fill="#150b14" fill-rule="nonzero" opacity="0.976596" stroke="none" vectornator:layerName="Rectangle 82"/>
<path d="M585.828 385.804L630.111 385.804L630.111 430.087L585.828 430.087L585.828 385.804Z" fill="#ef5f5f" fill-rule="nonzero" opacity="0.976596" stroke="none" vectornator:layerName="Rectangle 166"/>
<path d="M585.828 430.087L630.111 430.087L630.111 474.37L585.828 474.37L585.828 430.087Z" fill="#ef5f5f" fill-rule="nonzero" opacity="0.976596" stroke="none" vectornator:layerName="Rectangle 167"/>
<path d="M585.828 474.37L630.111 474.37L630.111 518.654L585.828 518.654L585.828 474.37Z" fill="#ef5f5f" fill-rule="nonzero" opacity="0.976596" stroke="none" vectornator:layerName="Rectangle 168"/>
<path d="M630.111 430.087L674.394 430.087L674.394 474.37L630.111 474.37L630.111 430.087Z" fill="#ef5f5f" fill-rule="nonzero" opacity="0.976596" stroke="none" vectornator:layerName="Rectangle 171"/>
<path d="M630.111 474.37L674.394 474.37L674.394 518.654L630.111 518.654L630.111 474.37Z" fill="#ef5f5f" fill-rule="nonzero" opacity="0.976596" stroke="none" vectornator:layerName="Rectangle 172"/>
<path d="M630.111 518.654L674.394 518.654L674.394 562.937L630.111 562.937L630.111 518.654Z" fill="#ef5f5f" fill-rule="nonzero" opacity="0.976596" stroke="none" vectornator:layerName="Rectangle 173"/>
<path d="M585.828 518.654L630.111 518.654L630.111 562.937L585.828 562.937L585.828 518.654Z" fill="#ef5f5f" fill-rule="nonzero" opacity="0.976596" stroke="none" vectornator:layerName="Rectangle 169"/>
<path d="M585.828 562.937L630.111 562.937L630.111 607.22L585.828 607.22L585.828 562.937Z" fill="#ef5f5f" fill-rule="nonzero" opacity="0.976596" stroke="none" vectornator:layerName="Rectangle 170"/>
<path d="M585.828 607.22L630.111 607.22L630.111 651.503L585.828 651.503L585.828 607.22Z" fill="#ef5f5f" fill-rule="nonzero" opacity="0.976596" stroke="none" vectornator:layerName="Rectangle 174"/>
<path d="M275.847 562.142L320.13 562.142L320.13 606.425L275.847 606.425L275.847 562.142Z" fill="#ef5f5f" fill-rule="nonzero" opacity="0.976596" stroke="none" vectornator:layerName="Rectangle 191"/>
<path d="M275.847 606.425L320.13 606.425L320.13 650.708L275.847 650.708L275.847 606.425Z" fill="#ef5f5f" fill-rule="nonzero" opacity="0.976596" stroke="none" vectornator:layerName="Rectangle 192"/>
<path d="M541.545 562.937L585.828 562.937L585.828 607.22L541.545 607.22L541.545 562.937Z" fill="#ef5f5f" fill-rule="nonzero" opacity="0.976596" stroke="none" vectornator:layerName="Rectangle 193"/>
<path d="M541.545 607.22L585.828 607.22L585.828 651.503L541.545 651.503L541.545 607.22Z" fill="#ef5f5f" fill-rule="nonzero" opacity="0.976596" stroke="none" vectornator:layerName="Rectangle 194"/>
<path d="M497.262 562.937L541.545 562.937L541.545 607.22L497.262 607.22L497.262 562.937Z" fill="#ef5f5f" fill-rule="nonzero" opacity="0.976596" stroke="none" vectornator:layerName="Rectangle 195"/>
<path d="M497.262 607.22L541.545 607.22L541.545 651.503L497.262 651.503L497.262 607.22Z" fill="#ef5f5f" fill-rule="nonzero" opacity="0.976596" stroke="none" vectornator:layerName="Rectangle 196"/>
<path d="M408.696 562.142L452.979 562.142L452.979 606.425L408.696 606.425L408.696 562.142Z" fill="#ef5f5f" fill-rule="nonzero" opacity="0.976596" stroke="none" vectornator:layerName="Rectangle 197"/>
<path d="M408.696 606.425L452.979 606.425L452.979 650.708L408.696 650.708L408.696 606.425Z" fill="#ef5f5f" fill-rule="nonzero" opacity="0.976596" stroke="none" vectornator:layerName="Rectangle 198"/>
<path d="M320.13 518.654L364.413 518.654L364.413 562.937L320.13 562.937L320.13 518.654Z" fill="#ef5f5f" fill-rule="nonzero" opacity="0.976596" stroke="none" vectornator:layerName="Rectangle 203"/>
<path d="M452.979 562.142L497.262 562.142L497.262 606.425L452.979 606.425L452.979 562.142Z" fill="#ef5f5f" fill-rule="nonzero" opacity="0.976596" stroke="none" vectornator:layerName="Rectangle 204"/>
<path d="M452.979 606.425L497.262 606.425L497.262 650.708L452.979 650.708L452.979 606.425Z" fill="#ef5f5f" fill-rule="nonzero" opacity="0.976596" stroke="none" vectornator:layerName="Rectangle 205"/>
<path d="M364.413 562.142L408.696 562.142L408.696 606.425L364.413 606.425L364.413 562.142Z" fill="#ef5f5f" fill-rule="nonzero" opacity="0.976596" stroke="none" vectornator:layerName="Rectangle 199"/>
<path d="M364.413 606.425L408.696 606.425L408.696 650.708L364.413 650.708L364.413 606.425Z" fill="#ef5f5f" fill-rule="nonzero" opacity="0.976596" stroke="none" vectornator:layerName="Rectangle 200"/>
<path d="M320.13 562.142L364.413 562.142L364.413 606.425L320.13 606.425L320.13 562.142Z" fill="#ef5f5f" fill-rule="nonzero" opacity="0.976596" stroke="none" vectornator:layerName="Rectangle 201"/>
<path d="M320.13 606.425L364.413 606.425L364.413 650.708L320.13 650.708L320.13 606.425Z" fill="#ef5f5f" fill-rule="nonzero" opacity="0.976596" stroke="none" vectornator:layerName="Rectangle 202"/>
<path d="M408.696 650.708L452.979 650.708L452.979 694.991L408.696 694.991L408.696 650.708Z" fill="#ef5f5f" fill-rule="nonzero" opacity="0.976596" stroke="none" vectornator:layerName="Rectangle 206"/>
<path d="M452.979 650.708L497.262 650.708L497.262 694.991L452.979 694.991L452.979 650.708Z" fill="#ef5f5f" fill-rule="nonzero" opacity="0.976596" stroke="none" vectornator:layerName="Rectangle 207"/>
<path d="M364.413 650.708L408.696 650.708L408.696 694.991L364.413 694.991L364.413 650.708Z" fill="#ef5f5f" fill-rule="nonzero" opacity="0.976596" stroke="none" vectornator:layerName="Rectangle 208"/>
<path d="M320.13 650.708L364.413 650.708L364.413 694.991L320.13 694.991L320.13 650.708Z" fill="#ef5f5f" fill-rule="nonzero" opacity="0.976596" stroke="none" vectornator:layerName="Rectangle 209"/>
<path d="M497.262 695.786L497.262 651.503L541.545 651.503L541.545 695.786L497.262 695.786Z" fill="#ef5f5f" fill-rule="nonzero" opacity="0.976596" stroke="none" vectornator:layerName="Rectangle 175"/>
<path d="M541.545 695.786L541.545 651.503L585.828 651.503L585.828 695.786L541.545 695.786Z" fill="#ef5f5f" fill-rule="nonzero" opacity="0.976596" stroke="none" vectornator:layerName="Rectangle 176"/>
<path d="M187.281 650.708L187.281 606.425L231.564 606.425L231.564 650.708L187.281 650.708Z" fill="#ef5f5f" fill-rule="nonzero" opacity="0.976596" stroke="none" vectornator:layerName="Rectangle 177"/>
<path d="M231.564 650.708L231.564 606.425L275.847 606.425L275.847 650.708L231.564 650.708Z" fill="#ef5f5f" fill-rule="nonzero" opacity="0.976596" stroke="none" vectornator:layerName="Rectangle 178"/>
<path d="M231.564 694.991L231.564 650.708L275.847 650.708L275.847 694.991L231.564 694.991Z" fill="#ef5f5f" fill-rule="nonzero" opacity="0.976596" stroke="none" vectornator:layerName="Rectangle 179"/>
<path d="M275.847 694.991L275.847 650.708L320.13 650.708L320.13 694.991L275.847 694.991Z" fill="#ef5f5f" fill-rule="nonzero" opacity="0.976596" stroke="none" vectornator:layerName="Rectangle 180"/>
<path d="M275.847 739.274L275.847 694.991L320.13 694.991L320.13 739.274L275.847 739.274Z" fill="#ef5f5f" fill-rule="nonzero" opacity="0.976596" stroke="none" vectornator:layerName="Rectangle 181"/>
<path d="M320.13 739.274L320.13 694.991L364.413 694.991L364.413 739.274L320.13 739.274Z" fill="#ef5f5f" fill-rule="nonzero" opacity="0.976596" stroke="none" vectornator:layerName="Rectangle 182"/>
<path d="M364.413 739.274L364.413 694.991L408.696 694.991L408.696 739.274L364.413 739.274Z" fill="#ef5f5f" fill-rule="nonzero" opacity="0.976596" stroke="none" vectornator:layerName="Rectangle 183"/>
<path d="M408.696 739.274L408.696 694.991L452.979 694.991L452.979 739.274L408.696 739.274Z" fill="#ef5f5f" fill-rule="nonzero" opacity="0.976596" stroke="none" vectornator:layerName="Rectangle 184"/>
<path d="M452.979 739.274L452.979 694.991L497.262 694.991L497.262 739.274L452.979 739.274Z" fill="#ef5f5f" fill-rule="nonzero" opacity="0.976596" stroke="none" vectornator:layerName="Rectangle 185"/>
<path d="M497.262 739.274L497.262 694.991L541.545 694.991L541.545 739.274L497.262 739.274Z" fill="#ef5f5f" fill-rule="nonzero" opacity="0.976596" stroke="none" vectornator:layerName="Rectangle 186"/>
<path d="M142.998 650.708L142.998 606.425L187.281 606.425L187.281 650.708L142.998 650.708Z" fill="#ca2525" fill-rule="nonzero" opacity="0.976596" stroke="none" vectornator:layerName="Rectangle 210"/>
<path d="M142.998 694.991L142.998 650.708L187.281 650.708L187.281 694.991L142.998 694.991Z" fill="#991111" fill-rule="nonzero" opacity="0.976596" stroke="none" vectornator:layerName="Rectangle 343"/>
<path d="M187.281 827.84L187.281 783.557L231.564 783.557L231.564 827.84L187.281 827.84Z" fill="#991111" fill-rule="nonzero" opacity="0.976596" stroke="none" vectornator:layerName="Rectangle 344"/>
<path d="M187.281 694.991L187.281 650.708L231.564 650.708L231.564 694.991L187.281 694.991Z" fill="#ca2525" fill-rule="nonzero" opacity="0.976596" stroke="none" vectornator:layerName="Rectangle 211"/>
<path d="M231.564 739.274L231.564 694.991L275.847 694.991L275.847 739.274L231.564 739.274Z" fill="#ca2525" fill-rule="nonzero" opacity="0.976596" stroke="none" vectornator:layerName="Rectangle 212"/>
<path d="M187.281 739.274L187.281 694.991L231.564 694.991L231.564 739.274L187.281 739.274Z" fill="#ca2525" fill-rule="nonzero" opacity="0.976596" stroke="none" vectornator:layerName="Rectangle 213"/>
<path d="M187.281 783.557L187.281 739.274L231.564 739.274L231.564 783.557L187.281 783.557Z" fill="#ca2525" fill-rule="nonzero" opacity="0.976596" stroke="none" vectornator:layerName="Rectangle 214"/>
<path d="M187.281 606.425L187.281 562.142L231.564 562.142L231.564 606.425L187.281 606.425Z" fill="#ef5f5f" fill-rule="nonzero" opacity="0.976596" stroke="none" vectornator:layerName="Rectangle 187"/>
<path d="M231.564 606.425L231.564 562.142L275.847 562.142L275.847 606.425L231.564 606.425Z" fill="#ef5f5f" fill-rule="nonzero" opacity="0.976596" stroke="none" vectornator:layerName="Rectangle 188"/>
<path d="M231.564 562.937L231.564 518.654L275.847 518.654L275.847 562.937L231.564 562.937Z" fill="#ef5f5f" fill-rule="nonzero" opacity="0.976596" stroke="none" vectornator:layerName="Rectangle 189"/>
<path d="M275.847 562.937L275.847 518.654L320.13 518.654L320.13 562.937L275.847 562.937Z" fill="#ef5f5f" fill-rule="nonzero" opacity="0.976596" stroke="none" vectornator:layerName="Rectangle 190"/>
<path d="M231.564 783.557L231.564 739.274L275.847 739.274L275.847 783.557L231.564 783.557Z" fill="#ca2525" fill-rule="nonzero" opacity="0.976596" stroke="none" vectornator:layerName="Rectangle 215"/>
<path d="M231.564 827.84L231.564 783.557L275.847 783.557L275.847 827.84L231.564 827.84Z" fill="#ca2525" fill-rule="nonzero" opacity="0.976596" stroke="none" vectornator:layerName="Rectangle 216"/>
<path d="M275.847 783.557L275.847 739.274L320.13 739.274L320.13 783.557L275.847 783.557Z" fill="#ca2525" fill-rule="nonzero" opacity="0.976596" stroke="none" vectornator:layerName="Rectangle 217"/>
<path d="M275.847 827.84L275.847 783.557L320.13 783.557L320.13 827.84L275.847 827.84Z" fill="#ca2525" fill-rule="nonzero" opacity="0.976596" stroke="none" vectornator:layerName="Rectangle 218"/>
<path d="M275.847 872.123L275.847 827.84L320.13 827.84L320.13 872.123L275.847 872.123Z" fill="#ca2525" fill-rule="nonzero" opacity="0.976596" stroke="none" vectornator:layerName="Rectangle 219"/>
<path d="M231.564 872.123L231.564 827.84L275.847 827.84L275.847 872.123L231.564 872.123Z" fill="#ca2525" fill-rule="nonzero" opacity="0.976596" stroke="none" vectornator:layerName="Rectangle 220"/>
<path d="M320.13 783.557L320.13 739.274L364.413 739.274L364.413 783.557L320.13 783.557Z" fill="#ca2525" fill-rule="nonzero" opacity="0.976596" stroke="none" vectornator:layerName="Rectangle 227"/>
<path d="M320.13 827.84L320.13 783.557L364.413 783.557L364.413 827.84L320.13 827.84Z" fill="#ca2525" fill-rule="nonzero" opacity="0.976596" stroke="none" vectornator:layerName="Rectangle 228"/>
<path d="M364.413 783.557L364.413 739.274L408.696 739.274L408.696 783.557L364.413 783.557Z" fill="#ca2525" fill-rule="nonzero" opacity="0.976596" stroke="none" vectornator:layerName="Rectangle 229"/>
<path d="M364.413 827.84L364.413 783.557L408.696 783.557L408.696 827.84L364.413 827.84Z" fill="#ca2525" fill-rule="nonzero" opacity="0.976596" stroke="none" vectornator:layerName="Rectangle 230"/>
<path d="M364.413 872.123L364.413 827.84L408.696 827.84L408.696 872.123L364.413 872.123Z" fill="#ca2525" fill-rule="nonzero" opacity="0.976596" stroke="none" vectornator:layerName="Rectangle 231"/>
<path d="M320.13 872.123L320.13 827.84L364.413 827.84L364.413 872.123L320.13 872.123Z" fill="#ca2525" fill-rule="nonzero" opacity="0.976596" stroke="none" vectornator:layerName="Rectangle 232"/>
<path d="M408.696 783.557L408.696 739.274L452.979 739.274L452.979 783.557L408.696 783.557Z" fill="#ca2525" fill-rule="nonzero" opacity="0.976596" stroke="none" vectornator:layerName="Rectangle 238"/>
<path d="M408.696 827.84L408.696 783.557L452.979 783.557L452.979 827.84L408.696 827.84Z" fill="#ca2525" fill-rule="nonzero" opacity="0.976596" stroke="none" vectornator:layerName="Rectangle 239"/>
<path d="M452.979 783.557L452.979 739.274L497.262 739.274L497.262 783.557L452.979 783.557Z" fill="#ca2525" fill-rule="nonzero" opacity="0.976596" stroke="none" vectornator:layerName="Rectangle 240"/>
<path d="M452.979 827.84L452.979 783.557L497.262 783.557L497.262 827.84L452.979 827.84Z" fill="#ca2525" fill-rule="nonzero" opacity="0.976596" stroke="none" vectornator:layerName="Rectangle 241"/>
<path d="M452.979 872.123L452.979 827.84L497.262 827.84L497.262 872.123L452.979 872.123Z" fill="#ca2525" fill-rule="nonzero" opacity="0.976596" stroke="none" vectornator:layerName="Rectangle 242"/>
<path d="M408.696 872.123L408.696 827.84L452.979 827.84L452.979 872.123L408.696 872.123Z" fill="#ca2525" fill-rule="nonzero" opacity="0.976596" stroke="none" vectornator:layerName="Rectangle 243"/>
<path d="M497.262 783.557L497.262 739.274L541.545 739.274L541.545 783.557L497.262 783.557Z" fill="#ca2525" fill-rule="nonzero" opacity="0.976596" stroke="none" vectornator:layerName="Rectangle 249"/>
<path d="M497.262 827.84L497.262 783.557L541.545 783.557L541.545 827.84L497.262 827.84Z" fill="#ca2525" fill-rule="nonzero" opacity="0.976596" stroke="none" vectornator:layerName="Rectangle 250"/>
<path d="M541.545 783.557L541.545 739.274L585.828 739.274L585.828 783.557L541.545 783.557Z" fill="#ca2525" fill-rule="nonzero" opacity="0.976596" stroke="none" vectornator:layerName="Rectangle 251"/>
<path d="M541.545 827.84L541.545 783.557L585.828 783.557L585.828 827.84L541.545 827.84Z" fill="#ca2525" fill-rule="nonzero" opacity="0.976596" stroke="none" vectornator:layerName="Rectangle 252"/>
<path d="M541.545 872.123L541.545 827.84L585.828 827.84L585.828 872.123L541.545 872.123Z" fill="#ca2525" fill-rule="nonzero" opacity="0.976596" stroke="none" vectornator:layerName="Rectangle 253"/>
<path d="M497.262 872.123L497.262 827.84L541.545 827.84L541.545 872.123L497.262 872.123Z" fill="#ca2525" fill-rule="nonzero" opacity="0.976596" stroke="none" vectornator:layerName="Rectangle 254"/>
<path d="M630.111 341.521L630.111 297.238L674.394 297.238L674.394 341.521L630.111 341.521Z" fill="#ca2525" fill-rule="nonzero" opacity="0.976596" stroke="none" vectornator:layerName="Rectangle 260"/>
<path d="M630.111 385.804L630.111 341.521L674.394 341.521L674.394 385.804L630.111 385.804Z" fill="#ca2525" fill-rule="nonzero" opacity="0.976596" stroke="none" vectornator:layerName="Rectangle 261"/>
<path d="M674.394 341.521L674.394 297.238L718.677 297.238L718.677 341.521L674.394 341.521Z" fill="#ca2525" fill-rule="nonzero" opacity="0.976596" stroke="none" vectornator:layerName="Rectangle 262"/>
<path d="M674.394 385.804L674.394 341.521L718.677 341.521L718.677 385.804L674.394 385.804Z" fill="#ca2525" fill-rule="nonzero" opacity="0.976596" stroke="none" vectornator:layerName="Rectangle 263"/>
<path d="M674.394 430.087L674.394 385.804L718.677 385.804L718.677 430.087L674.394 430.087Z" fill="#ca2525" fill-rule="nonzero" opacity="0.976596" stroke="none" vectornator:layerName="Rectangle 264"/>
<path d="M630.111 430.087L630.111 385.804L674.394 385.804L674.394 430.087L630.111 430.087Z" fill="#ca2525" fill-rule="nonzero" opacity="0.976596" stroke="none" vectornator:layerName="Rectangle 265"/>
<path d="M585.828 385.804L585.828 341.521L630.111 341.521L630.111 385.804L585.828 385.804Z" fill="#ca2525" fill-rule="nonzero" opacity="0.976596" stroke="none" vectornator:layerName="Rectangle 266"/>
<path d="M275.847 916.406L275.847 872.123L320.13 872.123L320.13 916.406L275.847 916.406Z" fill="#9b1717" fill-rule="nonzero" opacity="0.976596" stroke="none" vectornator:layerName="Rectangle 345"/>
<path d="M231.564 916.406L231.564 872.123L275.847 872.123L275.847 916.406L231.564 916.406Z" fill="#9b1717" fill-rule="nonzero" opacity="0.976596" stroke="none" vectornator:layerName="Rectangle 346"/>
<path d="M364.413 916.406L364.413 872.123L408.696 872.123L408.696 916.406L364.413 916.406Z" fill="#9b1717" fill-rule="nonzero" opacity="0.976596" stroke="none" vectornator:layerName="Rectangle 349"/>
<path d="M320.13 916.406L320.13 872.123L364.413 872.123L364.413 916.406L320.13 916.406Z" fill="#9b1717" fill-rule="nonzero" opacity="0.976596" stroke="none" vectornator:layerName="Rectangle 350"/>
<path d="M452.979 916.406L452.979 872.123L497.262 872.123L497.262 916.406L452.979 916.406Z" fill="#9b1717" fill-rule="nonzero" opacity="0.976596" stroke="none" vectornator:layerName="Rectangle 353"/>
<path d="M408.696 916.406L408.696 872.123L452.979 872.123L452.979 916.406L408.696 916.406Z" fill="#9b1717" fill-rule="nonzero" opacity="0.976596" stroke="none" vectornator:layerName="Rectangle 354"/>
<path d="M541.545 916.406L541.545 872.123L585.828 872.123L585.828 916.406L541.545 916.406Z" fill="#9b1717" fill-rule="nonzero" opacity="0.976596" stroke="none" vectornator:layerName="Rectangle 357"/>
<path d="M497.262 916.406L497.262 872.123L541.545 872.123L541.545 916.406L497.262 916.406Z" fill="#9b1717" fill-rule="nonzero" opacity="0.976596" stroke="none" vectornator:layerName="Rectangle 358"/>
<path d="M630.111 916.406L630.111 872.123L674.394 872.123L674.394 916.406L630.111 916.406Z" fill="#9b1717" fill-rule="nonzero" opacity="0.976596" stroke="none" vectornator:layerName="Rectangle 406"/>
<path d="M585.828 916.406L585.828 872.123L630.111 872.123L630.111 916.406L585.828 916.406Z" fill="#9b1717" fill-rule="nonzero" opacity="0.976596" stroke="none" vectornator:layerName="Rectangle 407"/>
<path d="M674.394 827.84L674.394 783.557L718.677 783.557L718.677 827.84L674.394 827.84Z" fill="#9b1717" fill-rule="nonzero" opacity="0.976596" stroke="none" vectornator:layerName="Rectangle 408"/>
<path d="M718.677 783.557L718.677 739.274L762.961 739.274L762.961 783.557L718.677 783.557Z" fill="#9b1717" fill-rule="nonzero" opacity="0.976596" stroke="none" vectornator:layerName="Rectangle 409"/>
<path d="M718.677 916.406L718.677 872.123L762.961 872.123L762.961 916.406L718.677 916.406Z" fill="#9b1717" fill-rule="nonzero" opacity="0.976596" stroke="none" vectornator:layerName="Rectangle 410"/>
<path d="M674.394 916.406L674.394 872.123L718.677 872.123L718.677 916.406L674.394 916.406Z" fill="#9b1717" fill-rule="nonzero" opacity="0.976596" stroke="none" vectornator:layerName="Rectangle 411"/>
<path d="M762.961 827.84L762.961 783.557L807.244 783.557L807.244 827.84L762.961 827.84Z" fill="#9b1717" fill-rule="nonzero" opacity="0.976596" stroke="none" vectornator:layerName="Rectangle 412"/>
<path d="M762.961 783.557L762.961 739.274L807.244 739.274L807.244 783.557L762.961 783.557Z" fill="#9b1717" fill-rule="nonzero" opacity="0.976596" stroke="none" vectornator:layerName="Rectangle 422"/>
<path d="M762.961 739.274L762.961 694.991L807.244 694.991L807.244 739.274L762.961 739.274Z" fill="#9b1717" fill-rule="nonzero" opacity="0.976596" stroke="none" vectornator:layerName="Rectangle 423"/>
<path d="M762.961 694.991L762.961 650.708L807.244 650.708L807.244 694.991L762.961 694.991Z" fill="#9b1717" fill-rule="nonzero" opacity="0.976596" stroke="none" vectornator:layerName="Rectangle 424"/>
<path d="M718.677 827.84L718.677 783.557L762.961 783.557L762.961 827.84L718.677 827.84Z" fill="#9b1717" fill-rule="nonzero" opacity="0.976596" stroke="none" vectornator:layerName="Rectangle 413"/>
<path d="M630.111 872.123L630.111 827.84L674.394 827.84L674.394 872.123L630.111 872.123Z" fill="#9b1717" fill-rule="nonzero" opacity="0.976596" stroke="none" vectornator:layerName="Rectangle 414"/>
<path d="M585.828 872.123L585.828 827.84L630.111 827.84L630.111 872.123L585.828 872.123Z" fill="#9b1717" fill-rule="nonzero" opacity="0.976596" stroke="none" vectornator:layerName="Rectangle 415"/>
<path d="M718.677 872.123L718.677 827.84L762.961 827.84L762.961 872.123L718.677 872.123Z" fill="#9b1717" fill-rule="nonzero" opacity="0.976596" stroke="none" vectornator:layerName="Rectangle 418"/>
<path d="M674.394 872.123L674.394 827.84L718.677 827.84L718.677 872.123L674.394 872.123Z" fill="#9b1717" fill-rule="nonzero" opacity="0.976596" stroke="none" vectornator:layerName="Rectangle 419"/>
<path d="M364.413 960.689L364.413 916.406L408.696 916.406L408.696 960.689L364.413 960.689Z" fill="#9b1717" fill-rule="nonzero" opacity="0.976596" stroke="none" vectornator:layerName="Rectangle 365"/>
<path d="M320.13 960.689L320.13 916.406L364.413 916.406L364.413 960.689L320.13 960.689Z" fill="#9b1717" fill-rule="nonzero" opacity="0.976596" stroke="none" vectornator:layerName="Rectangle 366"/>
<path d="M452.979 960.689L452.979 916.406L497.262 916.406L497.262 960.689L452.979 960.689Z" fill="#9b1717" fill-rule="nonzero" opacity="0.976596" stroke="none" vectornator:layerName="Rectangle 369"/>
<path d="M408.696 960.689L408.696 916.406L452.979 916.406L452.979 960.689L408.696 960.689Z" fill="#9b1717" fill-rule="nonzero" opacity="0.976596" stroke="none" vectornator:layerName="Rectangle 370"/>
<path d="M541.545 960.689L541.545 916.406L585.828 916.406L585.828 960.689L541.545 960.689Z" fill="#9b1717" fill-rule="nonzero" opacity="0.976596" stroke="none" vectornator:layerName="Rectangle 373"/>
<path d="M497.262 960.689L497.262 916.406L541.545 916.406L541.545 960.689L497.262 960.689Z" fill="#9b1717" fill-rule="nonzero" opacity="0.976596" stroke="none" vectornator:layerName="Rectangle 374"/>
<path d="M630.111 960.689L630.111 916.406L674.394 916.406L674.394 960.689L630.111 960.689Z" fill="#9b1717" fill-rule="nonzero" opacity="0.976596" stroke="none" vectornator:layerName="Rectangle 377"/>
<path d="M585.828 960.689L585.828 916.406L630.111 916.406L630.111 960.689L585.828 960.689Z" fill="#9b1717" fill-rule="nonzero" opacity="0.976596" stroke="none" vectornator:layerName="Rectangle 378"/>
<path d="M807.244 430.087L851.527 430.087L851.527 474.37L807.244 474.37L807.244 430.087Z" fill="#9b1717" fill-rule="nonzero" opacity="0.976596" stroke="none" vectornator:layerName="Rectangle 385"/>
<path d="M807.244 385.804L851.527 385.804L851.527 430.087L807.244 430.087L807.244 385.804Z" fill="#9b1717" fill-rule="nonzero" opacity="0.976596" stroke="none" vectornator:layerName="Rectangle 386"/>
<path d="M807.244 518.654L851.527 518.654L851.527 562.937L807.244 562.937L807.244 518.654Z" fill="#9b1717" fill-rule="nonzero" opacity="0.976596" stroke="none" vectornator:layerName="Rectangle 389"/>
<path d="M807.244 474.37L851.527 474.37L851.527 518.654L807.244 518.654L807.244 474.37Z" fill="#9b1717" fill-rule="nonzero" opacity="0.976596" stroke="none" vectornator:layerName="Rectangle 390"/>
<path d="M807.244 607.22L851.527 607.22L851.527 651.503L807.244 651.503L807.244 607.22Z" fill="#9b1717" fill-rule="nonzero" opacity="0.976596" stroke="none" vectornator:layerName="Rectangle 393"/>
<path d="M807.244 562.937L851.527 562.937L851.527 607.22L807.244 607.22L807.244 562.937Z" fill="#9b1717" fill-rule="nonzero" opacity="0.976596" stroke="none" vectornator:layerName="Rectangle 394"/>
<path d="M807.244 651.503L851.527 651.503L851.527 695.786L807.244 695.786L807.244 651.503Z" fill="#9b1717" fill-rule="nonzero" opacity="0.976596" stroke="none" vectornator:layerName="Rectangle 398"/>
<path d="M762.961 341.521L807.244 341.521L807.244 385.804L762.961 385.804L762.961 341.521Z" fill="#9b1717" fill-rule="nonzero" opacity="0.976596" stroke="none" vectornator:layerName="Rectangle 399"/>
<path d="M718.677 297.238L762.961 297.238L762.961 341.521L718.677 341.521L718.677 297.238Z" fill="#9b1717" fill-rule="nonzero" opacity="0.976596" stroke="none" vectornator:layerName="Rectangle 405"/>
<path d="M718.677 385.804L718.677 341.521L762.961 341.521L762.961 385.804L718.677 385.804Z" fill="#ca2525" fill-rule="nonzero" opacity="0.976596" stroke="none" vectornator:layerName="Rectangle 282"/>
<path d="M718.677 430.087L718.677 385.804L762.961 385.804L762.961 430.087L718.677 430.087Z" fill="#ca2525" fill-rule="nonzero" opacity="0.976596" stroke="none" vectornator:layerName="Rectangle 283"/>
<path d="M718.677 474.37L718.677 430.087L762.961 430.087L762.961 474.37L718.677 474.37Z" fill="#ca2525" fill-rule="nonzero" opacity="0.976596" stroke="none" vectornator:layerName="Rectangle 284"/>
<path d="M762.961 430.087L762.961 385.804L807.244 385.804L807.244 430.087L762.961 430.087Z" fill="#ca2525" fill-rule="nonzero" opacity="0.976596" stroke="none" vectornator:layerName="Rectangle 288"/>
<path d="M762.961 474.37L762.961 430.087L807.244 430.087L807.244 474.37L762.961 474.37Z" fill="#ca2525" fill-rule="nonzero" opacity="0.976596" stroke="none" vectornator:layerName="Rectangle 289"/>
<path d="M762.961 518.654L762.961 474.37L807.244 474.37L807.244 518.654L762.961 518.654Z" fill="#ca2525" fill-rule="nonzero" opacity="0.976596" stroke="none" vectornator:layerName="Rectangle 290"/>
<path d="M762.961 562.937L762.961 518.654L807.244 518.654L807.244 562.937L762.961 562.937Z" fill="#ca2525" fill-rule="nonzero" opacity="0.976596" stroke="none" vectornator:layerName="Rectangle 294"/>
<path d="M762.961 607.22L762.961 562.937L807.244 562.937L807.244 607.22L762.961 607.22Z" fill="#ca2525" fill-rule="nonzero" opacity="0.976596" stroke="none" vectornator:layerName="Rectangle 295"/>
<path d="M762.961 651.503L762.961 607.22L807.244 607.22L807.244 651.503L762.961 651.503Z" fill="#ca2525" fill-rule="nonzero" opacity="0.976596" stroke="none" vectornator:layerName="Rectangle 296"/>
<path d="M674.394 474.37L674.394 430.087L718.677 430.087L718.677 474.37L674.394 474.37Z" fill="#ca2525" fill-rule="nonzero" opacity="0.976596" stroke="none" vectornator:layerName="Rectangle 300"/>
<path d="M674.394 518.654L674.394 474.37L718.677 474.37L718.677 518.654L674.394 518.654Z" fill="#ca2525" fill-rule="nonzero" opacity="0.976596" stroke="none" vectornator:layerName="Rectangle 301"/>
<path d="M674.394 562.937L674.394 518.654L718.677 518.654L718.677 562.937L674.394 562.937Z" fill="#ca2525" fill-rule="nonzero" opacity="0.976596" stroke="none" vectornator:layerName="Rectangle 302"/>
<path d="M718.677 518.654L718.677 474.37L762.961 474.37L762.961 518.654L718.677 518.654Z" fill="#ca2525" fill-rule="nonzero" opacity="0.976596" stroke="none" vectornator:layerName="Rectangle 306"/>
<path d="M718.677 562.937L718.677 518.654L762.961 518.654L762.961 562.937L718.677 562.937Z" fill="#ca2525" fill-rule="nonzero" opacity="0.976596" stroke="none" vectornator:layerName="Rectangle 307"/>
<path d="M718.677 607.22L718.677 562.937L762.961 562.937L762.961 607.22L718.677 607.22Z" fill="#ca2525" fill-rule="nonzero" opacity="0.976596" stroke="none" vectornator:layerName="Rectangle 308"/>
<path d="M630.111 607.22L630.111 562.937L674.394 562.937L674.394 607.22L630.111 607.22Z" fill="#ca2525" fill-rule="nonzero" opacity="0.976596" stroke="none" vectornator:layerName="Rectangle 312"/>
<path d="M630.111 651.503L630.111 607.22L674.394 607.22L674.394 651.503L630.111 651.503Z" fill="#ca2525" fill-rule="nonzero" opacity="0.976596" stroke="none" vectornator:layerName="Rectangle 313"/>
<path d="M630.111 695.786L630.111 651.503L674.394 651.503L674.394 695.786L630.111 695.786Z" fill="#ca2525" fill-rule="nonzero" opacity="0.976596" stroke="none" vectornator:layerName="Rectangle 314"/>
<path d="M674.394 607.22L674.394 562.937L718.677 562.937L718.677 607.22L674.394 607.22Z" fill="#ca2525" fill-rule="nonzero" opacity="0.976596" stroke="none" vectornator:layerName="Rectangle 318"/>
<path d="M674.394 651.503L674.394 607.22L718.677 607.22L718.677 651.503L674.394 651.503Z" fill="#ca2525" fill-rule="nonzero" opacity="0.976596" stroke="none" vectornator:layerName="Rectangle 319"/>
<path d="M674.394 695.786L674.394 651.503L718.677 651.503L718.677 695.786L674.394 695.786Z" fill="#ca2525" fill-rule="nonzero" opacity="0.976596" stroke="none" vectornator:layerName="Rectangle 320"/>
<path d="M718.677 651.503L718.677 607.22L762.961 607.22L762.961 651.503L718.677 651.503Z" fill="#ca2525" fill-rule="nonzero" opacity="0.976596" stroke="none" vectornator:layerName="Rectangle 324"/>
<path d="M718.677 695.786L718.677 651.503L762.961 651.503L762.961 695.786L718.677 695.786Z" fill="#ca2525" fill-rule="nonzero" opacity="0.976596" stroke="none" vectornator:layerName="Rectangle 325"/>
<path d="M718.677 740.069L718.677 695.786L762.961 695.786L762.961 740.069L718.677 740.069Z" fill="#ca2525" fill-rule="nonzero" opacity="0.976596" stroke="none" vectornator:layerName="Rectangle 326"/>
<path d="M541.545 739.274L541.545 694.991L585.828 694.991L585.828 739.274L541.545 739.274Z" fill="#ca2525" fill-rule="nonzero" opacity="0.976596" stroke="none" vectornator:layerName="Rectangle 330"/>
<path d="M585.828 695.786L585.828 651.503L630.111 651.503L630.111 695.786L585.828 695.786Z" fill="#ca2525" fill-rule="nonzero" opacity="0.976596" stroke="none" vectornator:layerName="Rectangle 331"/>
<path d="M630.111 740.069L630.111 695.786L674.394 695.786L674.394 740.069L630.111 740.069Z" fill="#ca2525" fill-rule="nonzero" opacity="0.976596" stroke="none" vectornator:layerName="Rectangle 333"/>
<path d="M585.828 740.069L585.828 695.786L630.111 695.786L630.111 740.069L585.828 740.069Z" fill="#ca2525" fill-rule="nonzero" opacity="0.976596" stroke="none" vectornator:layerName="Rectangle 335"/>
<path d="M674.394 740.069L674.394 695.786L718.677 695.786L718.677 740.069L674.394 740.069Z" fill="#ca2525" fill-rule="nonzero" opacity="0.976596" stroke="none" vectornator:layerName="Rectangle 332"/>
<path d="M674.394 784.352L674.394 740.069L718.677 740.069L718.677 784.352L674.394 784.352Z" fill="#ca2525" fill-rule="nonzero" opacity="0.976596" stroke="none" vectornator:layerName="Rectangle 336"/>
<path d="M630.111 784.352L630.111 740.069L674.394 740.069L674.394 784.352L630.111 784.352Z" fill="#ca2525" fill-rule="nonzero" opacity="0.976596" stroke="none" vectornator:layerName="Rectangle 338"/>
<path d="M585.828 783.557L585.828 739.274L630.111 739.274L630.111 783.557L585.828 783.557Z" fill="#ca2525" fill-rule="nonzero" opacity="0.976596" stroke="none" vectornator:layerName="Rectangle 342"/>
<path d="M630.111 827.84L630.111 783.557L674.394 783.557L674.394 827.84L630.111 827.84Z" fill="#ca2525" fill-rule="nonzero" opacity="0.976596" stroke="none" vectornator:layerName="Rectangle 339"/>
<path d="M585.828 827.84L585.828 783.557L630.111 783.557L630.111 827.84L585.828 827.84Z" fill="#ca2525" fill-rule="nonzero" opacity="0.976596" stroke="none" vectornator:layerName="Rectangle 341"/>
</g>
</svg>
