<?xml version="1.0" encoding="UTF-8" standalone="no"?>
<!DOCTYPE svg PUBLIC "-//W3C//DTD SVG 1.1//EN" "http://www.w3.org/Graphics/SVG/1.1/DTD/svg11.dtd">
<!-- Created with Vectornator (http://vectornator.io/) -->
<svg height="100%" stroke-miterlimit="10" style="fill-rule:nonzero;clip-rule:evenodd;stroke-linecap:round;stroke-linejoin:round;" version="1.1" viewBox="0 0 1080 1080" width="100%" xml:space="preserve" xmlns="http://www.w3.org/2000/svg" xmlns:vectornator="http://vectornator.io" xmlns:xlink="http://www.w3.org/1999/xlink">
<defs/>
<g id="Calque-1" vectornator:layerName="Calque 1">
<path d="M30.3961 795.318L62.1038 758.717L99.031 790.144L67.3233 826.745L30.3961 795.318Z" fill="#000000" fill-rule="nonzero" opacity="0.976596" stroke="none" vectornator:layerName="Rectangle 1"/>
<path d="M62.1038 758.717L93.8115 722.117L130.739 753.544L99.031 790.144L62.1038 758.717Z" fill="#000000" fill-rule="nonzero" opacity="0.976596" stroke="none" vectornator:layerName="Rectangle 2"/>
<path d="M93.8115 722.117L125.519 685.516L162.446 716.943L130.739 753.544L93.8115 722.117Z" fill="#000000" fill-rule="nonzero" opacity="0.976596" stroke="none" vectornator:layerName="Rectangle 4"/>
<path d="M162.446 716.943L194.154 680.343L231.081 711.77L199.374 748.371L162.446 716.943Z" fill="#000000" fill-rule="nonzero" opacity="0.976596" stroke="none" vectornator:layerName="Rectangle 5"/>
<path d="M194.154 680.343L225.862 643.742L262.789 675.17L231.081 711.77L194.154 680.343Z" fill="#000000" fill-rule="nonzero" opacity="0.976596" stroke="none" vectornator:layerName="Rectangle 6"/>
<path d="M262.789 675.17L294.497 638.569L331.424 669.996L299.716 706.597L262.789 675.17Z" fill="#000000" fill-rule="nonzero" opacity="0.976596" stroke="none" vectornator:layerName="Rectangle 7"/>
<path d="M331.424 669.996L363.132 633.396L400.059 664.823L368.351 701.423L331.424 669.996Z" fill="#000000" fill-rule="nonzero" opacity="0.976596" stroke="none" vectornator:layerName="Rectangle 8"/>
<path d="M400.059 664.823L431.767 628.222L468.694 659.649L436.986 696.25L400.059 664.823Z" fill="#000000" fill-rule="nonzero" opacity="0.976596" stroke="none" vectornator:layerName="Rectangle 9"/>
<path d="M394.84 596.795L426.547 560.195L463.475 591.622L431.767 628.222L394.84 596.795Z" fill="#000000" fill-rule="nonzero" opacity="0.976596" stroke="none" vectornator:layerName="Rectangle 10"/>
<path d="M426.547 560.195L458.255 523.594L495.182 555.021L463.475 591.622L426.547 560.195Z" fill="#000000" fill-rule="nonzero" opacity="0.976596" stroke="none" vectornator:layerName="Rectangle 11"/>
<path d="M421.328 492.167L453.035 455.566L489.963 486.994L458.255 523.594L421.328 492.167Z" fill="#000000" fill-rule="nonzero" opacity="0.976596" stroke="none" vectornator:layerName="Rectangle 12"/>
<path d="M67.3233 826.745L99.031 790.144L135.958 821.572L104.251 858.172L67.3233 826.745Z" fill="#000000" fill-rule="nonzero" opacity="0.976596" stroke="none" vectornator:layerName="Rectangle 3"/>
<path d="M453.035 455.566L484.743 418.966L521.67 450.393L489.963 486.994L453.035 455.566Z" fill="#000000" fill-rule="nonzero" opacity="0.976596" stroke="none" vectornator:layerName="Rectangle 13"/>
<path d="M447.816 387.539L479.524 350.938L516.451 382.365L484.743 418.966L447.816 387.539Z" fill="#000000" fill-rule="nonzero" opacity="0.976596" stroke="none" vectornator:layerName="Rectangle 14"/>
<path d="M410.889 356.112L442.596 319.511L479.524 350.938L447.816 387.539L410.889 356.112Z" fill="#000000" fill-rule="nonzero" opacity="0.976596" stroke="none" vectornator:layerName="Rectangle 15"/>
<path d="M442.596 319.511L474.304 282.911L511.231 314.338L479.524 350.938L442.596 319.511Z" fill="#000000" fill-rule="nonzero" opacity="0.976596" stroke="none" vectornator:layerName="Rectangle 16"/>
<path d="M474.304 282.911L506.012 246.31L542.939 277.737L511.231 314.338L474.304 282.911Z" fill="#000000" fill-rule="nonzero" opacity="0.976596" stroke="none" vectornator:layerName="Rectangle 17"/>
<path d="M506.012 246.31L537.719 209.71L574.647 241.137L542.939 277.737L506.012 246.31Z" fill="#000000" fill-rule="nonzero" opacity="0.976596" stroke="none" vectornator:layerName="Rectangle 18"/>
<path d="M537.719 209.71L569.427 173.109L606.354 204.536L574.647 241.137L537.719 209.71Z" fill="#000000" fill-rule="nonzero" opacity="0.976596" stroke="none" vectornator:layerName="Rectangle 19"/>
<path d="M135.958 821.572L167.666 784.971L204.593 816.398L172.886 852.999L135.958 821.572Z" fill="#000000" fill-rule="nonzero" opacity="0.976596" stroke="none" vectornator:layerName="Rectangle 20"/>
<path d="M204.593 816.398L236.301 779.798L273.228 811.225L241.521 847.825L204.593 816.398Z" fill="#000000" fill-rule="nonzero" opacity="0.976596" stroke="none" vectornator:layerName="Rectangle 21"/>
<path d="M273.228 811.225L304.936 774.624L341.863 806.051L310.156 842.652L273.228 811.225Z" fill="#000000" fill-rule="nonzero" opacity="0.976596" stroke="none" vectornator:layerName="Rectangle 22"/>
<path d="M310.156 842.652L341.863 806.051L378.79 837.479L347.083 874.079L310.156 842.652Z" fill="#000000" fill-rule="nonzero" opacity="0.976596" stroke="none" vectornator:layerName="Rectangle 23"/>
<path d="M347.083 874.079L378.79 837.479L415.718 868.906L384.01 905.506L347.083 874.079Z" fill="#000000" fill-rule="nonzero" opacity="0.976596" stroke="none" vectornator:layerName="Rectangle 24"/>
<path d="M384.01 905.506L415.718 868.906L452.645 900.333L420.937 936.933L384.01 905.506Z" fill="#000000" fill-rule="nonzero" opacity="0.976596" stroke="none" vectornator:layerName="Rectangle 25"/>
<path d="M389.23 973.534L420.937 936.933L457.865 968.361L426.157 1004.96L389.23 973.534Z" fill="#000000" fill-rule="nonzero" opacity="0.976596" stroke="none" vectornator:layerName="Rectangle 26"/>
<path d="M426.157 1004.96L457.865 968.361L494.792 999.788L463.084 1036.39L426.157 1004.96Z" fill="#000000" fill-rule="nonzero" opacity="0.976596" stroke="none" vectornator:layerName="Rectangle 27"/>
<path d="M457.865 968.361L489.572 931.76L526.5 963.187L494.792 999.788L457.865 968.361Z" fill="#000000" fill-rule="nonzero" opacity="0.976596" stroke="none" vectornator:layerName="Rectangle 28"/>
<path d="M489.572 931.76L521.28 895.16L558.207 926.587L526.5 963.187L489.572 931.76Z" fill="#000000" fill-rule="nonzero" opacity="0.976596" stroke="none" vectornator:layerName="Rectangle 29"/>
<path d="M484.353 863.732L516.06 827.132L552.988 858.559L521.28 895.16L484.353 863.732Z" fill="#000000" fill-rule="nonzero" opacity="0.976596" stroke="none" vectornator:layerName="Rectangle 30"/>
<path d="M479.133 795.705L510.841 759.104L547.768 790.531L516.06 827.132L479.133 795.705Z" fill="#000000" fill-rule="nonzero" opacity="0.976596" stroke="none" vectornator:layerName="Rectangle 31"/>
<path d="M510.841 759.104L542.549 722.504L579.476 753.931L547.768 790.531L510.841 759.104Z" fill="#000000" fill-rule="nonzero" opacity="0.976596" stroke="none" vectornator:layerName="Rectangle 32"/>
<path d="M542.549 722.504L574.256 685.903L611.184 717.33L579.476 753.931L542.549 722.504Z" fill="#000000" fill-rule="nonzero" opacity="0.976596" stroke="none" vectornator:layerName="Rectangle 33"/>
<path d="M611.184 717.33L642.891 680.73L679.819 712.157L648.111 748.758L611.184 717.33Z" fill="#000000" fill-rule="nonzero" opacity="0.976596" stroke="none" vectornator:layerName="Rectangle 34"/>
<path d="M642.891 680.73L674.599 644.129L711.526 675.556L679.819 712.157L642.891 680.73Z" fill="#000000" fill-rule="nonzero" opacity="0.976596" stroke="none" vectornator:layerName="Rectangle 35"/>
<path d="M711.526 675.556L743.234 638.956L780.161 670.383L748.454 706.984L711.526 675.556Z" fill="#000000" fill-rule="nonzero" opacity="0.976596" stroke="none" vectornator:layerName="Rectangle 36"/>
<path d="M743.234 638.956L774.942 602.355L811.869 633.783L780.161 670.383L743.234 638.956Z" fill="#000000" fill-rule="nonzero" opacity="0.976596" stroke="none" vectornator:layerName="Rectangle 37"/>
<path d="M706.307 607.529L738.014 570.928L774.942 602.355L743.234 638.956L706.307 607.529Z" fill="#000000" fill-rule="nonzero" opacity="0.976596" stroke="none" vectornator:layerName="Rectangle 38"/>
<path d="M701.087 539.501L732.795 502.901L769.722 534.328L738.014 570.928L701.087 539.501Z" fill="#000000" fill-rule="nonzero" opacity="0.976596" stroke="none" vectornator:layerName="Rectangle 39"/>
<path d="M780.161 670.383L811.869 633.783L848.796 665.21L817.089 701.81L780.161 670.383Z" fill="#000000" fill-rule="nonzero" opacity="0.976596" stroke="none" vectornator:layerName="Rectangle 40"/>
<path d="M811.869 633.783L843.577 597.182L880.504 628.609L848.796 665.21L811.869 633.783Z" fill="#000000" fill-rule="nonzero" opacity="0.976596" stroke="none" vectornator:layerName="Rectangle 41"/>
<path d="M843.577 597.182L875.284 560.582L912.212 592.009L880.504 628.609L843.577 597.182Z" fill="#000000" fill-rule="nonzero" opacity="0.976596" stroke="none" vectornator:layerName="Rectangle 42"/>
<path d="M838.357 529.154L870.065 492.554L906.992 523.981L875.284 560.582L838.357 529.154Z" fill="#000000" fill-rule="nonzero" opacity="0.976596" stroke="none" vectornator:layerName="Rectangle 43"/>
<path d="M606.354 204.536L638.062 167.936L674.989 199.363L643.282 235.963L606.354 204.536Z" fill="#000000" fill-rule="nonzero" opacity="0.976596" stroke="none" vectornator:layerName="Rectangle 44"/>
<path d="M638.062 167.936L669.77 131.335L706.697 162.762L674.989 199.363L638.062 167.936Z" fill="#000000" fill-rule="nonzero" opacity="0.976596" stroke="none" vectornator:layerName="Rectangle 45"/>
<path d="M706.697 162.762L738.405 126.162L775.332 157.589L743.624 194.19L706.697 162.762Z" fill="#000000" fill-rule="nonzero" opacity="0.976596" stroke="none" vectornator:layerName="Rectangle 46"/>
<path d="M738.405 126.162L770.113 89.5613L807.04 120.988L775.332 157.589L738.405 126.162Z" fill="#000000" fill-rule="nonzero" opacity="0.976596" stroke="none" vectornator:layerName="Rectangle 47"/>
<path d="M807.04 120.988L838.747 84.388L875.675 115.815L843.967 152.416L807.04 120.988Z" fill="#000000" fill-rule="nonzero" opacity="0.976596" stroke="none" vectornator:layerName="Rectangle 48"/>
<path d="M875.675 115.815L907.382 79.2146L944.31 110.642L912.602 147.242L875.675 115.815Z" fill="#000000" fill-rule="nonzero" opacity="0.976596" stroke="none" vectornator:layerName="Rectangle 49"/>
<path d="M912.602 147.242L944.31 110.642L981.237 142.069L949.529 178.669L912.602 147.242Z" fill="#000000" fill-rule="nonzero" opacity="0.976596" stroke="none" vectornator:layerName="Rectangle 50"/>
<path d="M949.529 178.669L981.237 142.069L1018.16 173.496L986.457 210.097L949.529 178.669Z" fill="#000000" fill-rule="nonzero" opacity="0.976596" stroke="none" vectornator:layerName="Rectangle 51"/>
<path d="M954.749 246.697L986.457 210.097L1023.38 241.524L991.676 278.124L954.749 246.697Z" fill="#000000" fill-rule="nonzero" opacity="0.976596" stroke="none" vectornator:layerName="Rectangle 52"/>
<path d="M959.968 314.725L991.676 278.124L1028.6 309.551L996.896 346.152L959.968 314.725Z" fill="#000000" fill-rule="nonzero" opacity="0.976596" stroke="none" vectornator:layerName="Rectangle 53"/>
<path d="M928.261 351.325L959.968 314.725L996.896 346.152L965.188 382.752L928.261 351.325Z" fill="#000000" fill-rule="nonzero" opacity="0.976596" stroke="none" vectornator:layerName="Rectangle 54"/>
<path d="M932.285 420.732L963.993 384.132L1000.92 415.559L969.213 452.159L932.285 420.732Z" fill="#000000" fill-rule="nonzero" opacity="0.976596" stroke="none" vectornator:layerName="Rectangle 55"/>
<path d="M900.578 457.333L932.285 420.732L969.213 452.159L937.505 488.76L900.578 457.333Z" fill="#000000" fill-rule="nonzero" opacity="0.976596" stroke="none" vectornator:layerName="Rectangle 56"/>
<path d="M748.844 262.217L780.552 225.617L817.479 257.044L785.771 293.644L748.844 262.217Z" fill="#000000" fill-rule="nonzero" opacity="0.976596" stroke="none" vectornator:layerName="Rectangle 58"/>
<path d="M167.666 784.971L199.374 748.371L236.301 779.798L204.593 816.398L167.666 784.971Z" fill="#080393" fill-rule="nonzero" opacity="0.976596" stroke="none" vectornator:layerName="Rectangle 59"/>
<path d="M236.301 779.798L268.009 743.197L304.936 774.624L273.228 811.225L236.301 779.798Z" fill="#080393" fill-rule="nonzero" opacity="0.976596" stroke="none" vectornator:layerName="Rectangle 60"/>
<path d="M420.937 936.933L452.645 900.333L489.572 931.76L457.865 968.361L420.937 936.933Z" fill="#080393" fill-rule="nonzero" opacity="0.976596" stroke="none" vectornator:layerName="Rectangle 61"/>
<path d="M452.645 900.333L484.353 863.732L521.28 895.16L489.572 931.76L452.645 900.333Z" fill="#080393" fill-rule="nonzero" opacity="0.976596" stroke="none" vectornator:layerName="Rectangle 62"/>
<path d="M415.718 868.906L447.425 832.305L484.353 863.732L452.645 900.333L415.718 868.906Z" fill="#080393" fill-rule="nonzero" opacity="0.976596" stroke="none" vectornator:layerName="Rectangle 63"/>
<path d="M447.425 832.305L479.133 795.705L516.06 827.132L484.353 863.732L447.425 832.305Z" fill="#080393" fill-rule="nonzero" opacity="0.976596" stroke="none" vectornator:layerName="Rectangle 64"/>
<path d="M378.79 837.479L410.498 800.878L447.425 832.305L415.718 868.906L378.79 837.479Z" fill="#080393" fill-rule="nonzero" opacity="0.976596" stroke="none" vectornator:layerName="Rectangle 65"/>
<path d="M341.863 806.051L373.571 769.451L410.498 800.878L378.79 837.479L341.863 806.051Z" fill="#080393" fill-rule="nonzero" opacity="0.976596" stroke="none" vectornator:layerName="Rectangle 66"/>
<path d="M410.498 800.878L442.206 764.278L479.133 795.705L447.425 832.305L410.498 800.878Z" fill="#080393" fill-rule="nonzero" opacity="0.976596" stroke="none" vectornator:layerName="Rectangle 67"/>
<path d="M442.206 764.278L473.914 727.677L510.841 759.104L479.133 795.705L442.206 764.278Z" fill="#080393" fill-rule="nonzero" opacity="0.976596" stroke="none" vectornator:layerName="Rectangle 68"/>
<path d="M473.914 727.677L505.621 691.077L542.549 722.504L510.841 759.104L473.914 727.677Z" fill="#080393" fill-rule="nonzero" opacity="0.976596" stroke="none" vectornator:layerName="Rectangle 69"/>
<path d="M574.256 685.903L605.964 649.303L642.891 680.73L611.184 717.33L574.256 685.903Z" fill="#080393" fill-rule="nonzero" opacity="0.976596" stroke="none" vectornator:layerName="Rectangle 70"/>
<path d="M605.964 649.303L637.672 612.702L674.599 644.129L642.891 680.73L605.964 649.303Z" fill="#080393" fill-rule="nonzero" opacity="0.976596" stroke="none" vectornator:layerName="Rectangle 71"/>
<path d="M674.599 644.129L706.307 607.529L743.234 638.956L711.526 675.556L674.599 644.129Z" fill="#080393" fill-rule="nonzero" opacity="0.976596" stroke="none" vectornator:layerName="Rectangle 72"/>
<path d="M738.014 570.928L769.722 534.328L806.649 565.755L774.942 602.355L738.014 570.928Z" fill="#080393" fill-rule="nonzero" opacity="0.976596" stroke="none" vectornator:layerName="Rectangle 73"/>
<path d="M774.942 602.355L806.649 565.755L843.577 597.182L811.869 633.783L774.942 602.355Z" fill="#080393" fill-rule="nonzero" opacity="0.976596" stroke="none" vectornator:layerName="Rectangle 74"/>
<path d="M806.649 565.755L838.357 529.154L875.284 560.582L843.577 597.182L806.649 565.755Z" fill="#080393" fill-rule="nonzero" opacity="0.976596" stroke="none" vectornator:layerName="Rectangle 75"/>
<path d="M801.43 497.727L833.138 461.127L870.065 492.554L838.357 529.154L801.43 497.727Z" fill="#080393" fill-rule="nonzero" opacity="0.976596" stroke="none" vectornator:layerName="Rectangle 76"/>
<path d="M833.138 461.127L864.845 424.526L901.773 455.953L870.065 492.554L833.138 461.127Z" fill="#080393" fill-rule="nonzero" opacity="0.976596" stroke="none" vectornator:layerName="Rectangle 77"/>
<path d="M796.21 429.7L827.918 393.099L864.845 424.526L833.138 461.127L796.21 429.7Z" fill="#080393" fill-rule="nonzero" opacity="0.976596" stroke="none" vectornator:layerName="Rectangle 78"/>
<path d="M727.575 434.873L759.283 398.272L796.21 429.7L764.503 466.3L727.575 434.873Z" fill="#080393" fill-rule="nonzero" opacity="0.976596" stroke="none" vectornator:layerName="Rectangle 81"/>
<path d="M864.845 424.526L896.553 387.926L933.48 419.353L901.773 455.953L864.845 424.526Z" fill="#080393" fill-rule="nonzero" opacity="0.976596" stroke="none" vectornator:layerName="Rectangle 79"/>
<path d="M896.553 387.926L928.261 351.325L965.188 382.752L933.48 419.353L896.553 387.926Z" fill="#080393" fill-rule="nonzero" opacity="0.976596" stroke="none" vectornator:layerName="Rectangle 80"/>
<path d="M868.87 493.933L900.578 457.333L937.505 488.76L905.797 525.36L868.87 493.933Z" fill="#000000" fill-rule="nonzero" opacity="0.976596" stroke="none" vectornator:layerName="Rectangle 57"/>
<path d="M690.648 403.446L722.356 366.845L759.283 398.272L727.575 434.873L690.648 403.446Z" fill="#080393" fill-rule="nonzero" opacity="0.976596" stroke="none" vectornator:layerName="Rectangle 82"/>
<path d="M653.721 372.019L685.428 335.418L722.356 366.845L690.648 403.446L653.721 372.019Z" fill="#080393" fill-rule="nonzero" opacity="0.976596" stroke="none" vectornator:layerName="Rectangle 83"/>
<path d="M99.031 790.144L130.739 753.544L167.666 784.971L135.958 821.572L99.031 790.144Z" fill="#8bd5ff" fill-rule="nonzero" opacity="0.976596" stroke="none" vectornator:layerName="Rectangle 84"/>
<path d="M130.739 753.544L162.446 716.943L199.374 748.371L167.666 784.971L130.739 753.544Z" fill="#8bd5ff" fill-rule="nonzero" opacity="0.976596" stroke="none" vectornator:layerName="Rectangle 85"/>
<path d="M199.374 748.371L231.081 711.77L268.009 743.197L236.301 779.798L199.374 748.371Z" fill="#8bd5ff" fill-rule="nonzero" opacity="0.976596" stroke="none" vectornator:layerName="Rectangle 86"/>
<path d="M231.081 711.77L262.789 675.17L299.716 706.597L268.009 743.197L231.081 711.77Z" fill="#8bd5ff" fill-rule="nonzero" opacity="0.976596" stroke="none" vectornator:layerName="Rectangle 87"/>
<path d="M299.716 706.597L331.424 669.996L368.351 701.423L336.644 738.024L299.716 706.597Z" fill="#8bd5ff" fill-rule="nonzero" opacity="0.976596" stroke="none" vectornator:layerName="Rectangle 88"/>
<path d="M368.351 701.423L400.059 664.823L436.986 696.25L405.279 732.85L368.351 701.423Z" fill="#8bd5ff" fill-rule="nonzero" opacity="0.976596" stroke="none" vectornator:layerName="Rectangle 89"/>
<path d="M574.647 241.137L606.354 204.536L643.282 235.963L611.574 272.564L574.647 241.137Z" fill="#8bd5ff" fill-rule="nonzero" opacity="0.976596" stroke="none" vectornator:layerName="Rectangle 90"/>
<path d="M542.939 277.737L574.647 241.137L611.574 272.564L579.866 309.164L542.939 277.737Z" fill="#8bd5ff" fill-rule="nonzero" opacity="0.976596" stroke="none" vectornator:layerName="Rectangle 91"/>
<path d="M511.231 314.338L542.939 277.737L579.866 309.164L548.159 345.765L511.231 314.338Z" fill="#8bd5ff" fill-rule="nonzero" opacity="0.976596" stroke="none" vectornator:layerName="Rectangle 92"/>
<path d="M268.009 743.197L299.716 706.597L336.644 738.024L304.936 774.624L268.009 743.197Z" fill="#3784ff" fill-rule="nonzero" opacity="0.976596" stroke="none" vectornator:layerName="Rectangle 98"/>
<path d="M304.936 774.624L336.644 738.024L373.571 769.451L341.863 806.051L304.936 774.624Z" fill="#3c87ff" fill-rule="nonzero" opacity="0.976596" stroke="none" vectornator:layerName="Rectangle 99"/>
<path d="M336.644 738.024L368.351 701.423L405.279 732.85L373.571 769.451L336.644 738.024Z" fill="#3c87ff" fill-rule="nonzero" opacity="0.976596" stroke="none" vectornator:layerName="Rectangle 100"/>
<path d="M373.571 769.451L405.279 732.85L442.206 764.278L410.498 800.878L373.571 769.451Z" fill="#418aff" fill-rule="nonzero" opacity="0.976596" stroke="none" vectornator:layerName="Rectangle 101"/>
<path d="M405.279 732.85L436.986 696.25L473.914 727.677L442.206 764.278L405.279 732.85Z" fill="#418aff" fill-rule="nonzero" opacity="0.976596" stroke="none" vectornator:layerName="Rectangle 102"/>
<path d="M436.986 696.25L468.694 659.649L505.621 691.077L473.914 727.677L436.986 696.25Z" fill="#418aff" fill-rule="nonzero" opacity="0.976596" stroke="none" vectornator:layerName="Rectangle 103"/>
<path d="M505.621 691.077L537.329 654.476L574.256 685.903L542.549 722.504L505.621 691.077Z" fill="#418aff" fill-rule="nonzero" opacity="0.976596" stroke="none" vectornator:layerName="Rectangle 104"/>
<path d="M468.694 659.649L500.402 623.049L537.329 654.476L505.621 691.077L468.694 659.649Z" fill="#418aff" fill-rule="nonzero" opacity="0.976596" stroke="none" vectornator:layerName="Rectangle 105"/>
<path d="M431.767 628.222L463.475 591.622L500.402 623.049L468.694 659.649L431.767 628.222Z" fill="#418aff" fill-rule="nonzero" opacity="0.976596" stroke="none" vectornator:layerName="Rectangle 106"/>
<path d="M463.475 591.622L495.182 555.021L532.109 586.448L500.402 623.049L463.475 591.622Z" fill="#418aff" fill-rule="nonzero" opacity="0.976596" stroke="none" vectornator:layerName="Rectangle 107"/>
<path d="M500.402 623.049L532.109 586.448L569.037 617.876L537.329 654.476L500.402 623.049Z" fill="#418aff" fill-rule="nonzero" opacity="0.976596" stroke="none" vectornator:layerName="Rectangle 108"/>
<path d="M537.329 654.476L569.037 617.876L605.964 649.303L574.256 685.903L537.329 654.476Z" fill="#418aff" fill-rule="nonzero" opacity="0.976596" stroke="none" vectornator:layerName="Rectangle 109"/>
<path d="M458.255 523.594L489.963 486.994L526.89 518.421L495.182 555.021L458.255 523.594Z" fill="#418aff" fill-rule="nonzero" opacity="0.976596" stroke="none" vectornator:layerName="Rectangle 110"/>
<path d="M489.963 486.994L521.67 450.393L558.598 481.82L526.89 518.421L489.963 486.994Z" fill="#418aff" fill-rule="nonzero" opacity="0.976596" stroke="none" vectornator:layerName="Rectangle 111"/>
<path d="M484.743 418.966L516.451 382.365L553.378 413.793L521.67 450.393L484.743 418.966Z" fill="#418aff" fill-rule="nonzero" opacity="0.976596" stroke="none" vectornator:layerName="Rectangle 112"/>
<path d="M479.524 350.938L511.231 314.338L548.159 345.765L516.451 382.365L479.524 350.938Z" fill="#418aff" fill-rule="nonzero" opacity="0.976596" stroke="none" vectornator:layerName="Rectangle 113"/>
<path d="M516.451 382.365L548.159 345.765L585.086 377.192L553.378 413.793L516.451 382.365Z" fill="#418aff" fill-rule="nonzero" opacity="0.976596" stroke="none" vectornator:layerName="Rectangle 114"/>
<path d="M521.67 450.393L553.378 413.793L590.305 445.22L558.598 481.82L521.67 450.393Z" fill="#418aff" fill-rule="nonzero" opacity="0.976596" stroke="none" vectornator:layerName="Rectangle 115"/>
<path d="M553.378 413.793L585.086 377.192L622.013 408.619L590.305 445.22L553.378 413.793Z" fill="#418aff" fill-rule="nonzero" opacity="0.976596" stroke="none" vectornator:layerName="Rectangle 116"/>
<path d="M495.182 555.021L526.89 518.421L563.817 549.848L532.109 586.448L495.182 555.021Z" fill="#418aff" fill-rule="nonzero" opacity="0.976596" stroke="none" vectornator:layerName="Rectangle 117"/>
<path d="M526.89 518.421L558.598 481.82L595.525 513.247L563.817 549.848L526.89 518.421Z" fill="#418aff" fill-rule="nonzero" opacity="0.976596" stroke="none" vectornator:layerName="Rectangle 118"/>
<path d="M532.109 586.448L563.817 549.848L600.744 581.275L569.037 617.876L532.109 586.448Z" fill="#418aff" fill-rule="nonzero" opacity="0.976596" stroke="none" vectornator:layerName="Rectangle 119"/>
<path d="M563.817 549.848L595.525 513.247L632.452 544.675L600.744 581.275L563.817 549.848Z" fill="#418aff" fill-rule="nonzero" opacity="0.976596" stroke="none" vectornator:layerName="Rectangle 120"/>
<path d="M569.037 617.876L600.744 581.275L637.672 612.702L605.964 649.303L569.037 617.876Z" fill="#418aff" fill-rule="nonzero" opacity="0.976596" stroke="none" vectornator:layerName="Rectangle 121"/>
<path d="M600.744 581.275L632.452 544.675L669.379 576.102L637.672 612.702L600.744 581.275Z" fill="#418aff" fill-rule="nonzero" opacity="0.976596" stroke="none" vectornator:layerName="Rectangle 122"/>
<path d="M637.672 612.702L669.379 576.102L706.307 607.529L674.599 644.129L637.672 612.702Z" fill="#418aff" fill-rule="nonzero" opacity="0.976596" stroke="none" vectornator:layerName="Rectangle 123"/>
<path d="M669.379 576.102L701.087 539.501L738.014 570.928L706.307 607.529L669.379 576.102Z" fill="#418aff" fill-rule="nonzero" opacity="0.976596" stroke="none" vectornator:layerName="Rectangle 124"/>
<path d="M769.722 534.328L801.43 497.727L838.357 529.154L806.649 565.755L769.722 534.328Z" fill="#418aff" fill-rule="nonzero" opacity="0.976596" stroke="none" vectornator:layerName="Rectangle 125"/>
<path d="M732.795 502.901L764.503 466.3L801.43 497.727L769.722 534.328L732.795 502.901Z" fill="#418aff" fill-rule="nonzero" opacity="0.976596" stroke="none" vectornator:layerName="Rectangle 126"/>
<path d="M764.503 466.3L796.21 429.7L833.138 461.127L801.43 497.727L764.503 466.3Z" fill="#418aff" fill-rule="nonzero" opacity="0.976596" stroke="none" vectornator:layerName="Rectangle 127"/>
<path d="M632.452 544.675L664.16 508.074L701.087 539.501L669.379 576.102L632.452 544.675Z" fill="#418aff" fill-rule="nonzero" opacity="0.976596" stroke="none" vectornator:layerName="Rectangle 128"/>
<path d="M664.16 508.074L695.868 471.474L732.795 502.901L701.087 539.501L664.16 508.074Z" fill="#418aff" fill-rule="nonzero" opacity="0.976596" stroke="none" vectornator:layerName="Rectangle 129"/>
<path d="M695.868 471.474L727.575 434.873L764.503 466.3L732.795 502.901L695.868 471.474Z" fill="#418aff" fill-rule="nonzero" opacity="0.976596" stroke="none" vectornator:layerName="Rectangle 130"/>
<path d="M658.94 440.046L690.648 403.446L727.575 434.873L695.868 471.474L658.94 440.046Z" fill="#418aff" fill-rule="nonzero" opacity="0.976596" stroke="none" vectornator:layerName="Rectangle 131"/>
<path d="M558.598 481.82L590.305 445.22L627.233 476.647L595.525 513.247L558.598 481.82Z" fill="#418aff" fill-rule="nonzero" opacity="0.976596" stroke="none" vectornator:layerName="Rectangle 132"/>
<path d="M595.525 513.247L627.233 476.647L664.16 508.074L632.452 544.675L595.525 513.247Z" fill="#418aff" fill-rule="nonzero" opacity="0.976596" stroke="none" vectornator:layerName="Rectangle 133"/>
<path d="M627.233 476.647L658.94 440.046L695.868 471.474L664.16 508.074L627.233 476.647Z" fill="#418aff" fill-rule="nonzero" opacity="0.976596" stroke="none" vectornator:layerName="Rectangle 134"/>
<path d="M590.305 445.22L622.013 408.619L658.94 440.046L627.233 476.647L590.305 445.22Z" fill="#418aff" fill-rule="nonzero" opacity="0.976596" stroke="none" vectornator:layerName="Rectangle 135"/>
<path d="M622.013 408.619L653.721 372.019L690.648 403.446L658.94 440.046L622.013 408.619Z" fill="#418aff" fill-rule="nonzero" opacity="0.976596" stroke="none" vectornator:layerName="Rectangle 136"/>
<path d="M585.086 377.192L616.794 340.592L653.721 372.019L622.013 408.619L585.086 377.192Z" fill="#418aff" fill-rule="nonzero" opacity="0.976596" stroke="none" vectornator:layerName="Rectangle 137"/>
<path d="M548.159 345.765L579.866 309.164L616.794 340.592L585.086 377.192L548.159 345.765Z" fill="#418aff" fill-rule="nonzero" opacity="0.976596" stroke="none" vectornator:layerName="Rectangle 138"/>
<path d="M616.794 340.592L648.501 303.991L685.428 335.418L653.721 372.019L616.794 340.592Z" fill="#418aff" fill-rule="nonzero" opacity="0.976596" stroke="none" vectornator:layerName="Rectangle 139"/>
<path d="M579.866 309.164L611.574 272.564L648.501 303.991L616.794 340.592L579.866 309.164Z" fill="#418aff" fill-rule="nonzero" opacity="0.976596" stroke="none" vectornator:layerName="Rectangle 140"/>
<path d="M611.574 272.564L643.282 235.963L680.209 267.391L648.501 303.991L611.574 272.564Z" fill="#418aff" fill-rule="nonzero" opacity="0.976596" stroke="none" vectornator:layerName="Rectangle 141"/>
<path d="M648.501 303.991L680.209 267.391L717.136 298.818L685.428 335.418L648.501 303.991Z" fill="#418aff" fill-rule="nonzero" opacity="0.976596" stroke="none" vectornator:layerName="Rectangle 142"/>
<path d="M680.209 267.391L711.917 230.79L748.844 262.217L717.136 298.818L680.209 267.391Z" fill="#418aff" fill-rule="nonzero" opacity="0.976596" stroke="none" vectornator:layerName="Rectangle 143"/>
<path d="M711.917 230.79L743.624 194.19L780.552 225.617L748.844 262.217L711.917 230.79Z" fill="#418aff" fill-rule="nonzero" opacity="0.976596" stroke="none" vectornator:layerName="Rectangle 144"/>
<path d="M685.428 335.418L717.136 298.818L754.063 330.245L722.356 366.845L685.428 335.418Z" fill="#418aff" fill-rule="nonzero" opacity="0.976596" stroke="none" vectornator:layerName="Rectangle 145"/>
<path d="M717.136 298.818L748.844 262.217L785.771 293.644L754.063 330.245L717.136 298.818Z" fill="#418aff" fill-rule="nonzero" opacity="0.976596" stroke="none" vectornator:layerName="Rectangle 146"/>
<path d="M722.356 366.845L754.063 330.245L790.991 361.672L759.283 398.272L722.356 366.845Z" fill="#418aff" fill-rule="nonzero" opacity="0.976596" stroke="none" vectornator:layerName="Rectangle 147"/>
<path d="M759.283 398.272L790.991 361.672L827.918 393.099L796.21 429.7L759.283 398.272Z" fill="#418aff" fill-rule="nonzero" opacity="0.976596" stroke="none" vectornator:layerName="Rectangle 148"/>
<path d="M827.918 393.099L859.626 356.499L896.553 387.926L864.845 424.526L827.918 393.099Z" fill="#418aff" fill-rule="nonzero" opacity="0.976596" stroke="none" vectornator:layerName="Rectangle 149"/>
<path d="M859.626 356.499L891.333 319.898L928.261 351.325L896.553 387.926L859.626 356.499Z" fill="#418aff" fill-rule="nonzero" opacity="0.976596" stroke="none" vectornator:layerName="Rectangle 152"/>
<path d="M643.282 235.963L674.989 199.363L711.917 230.79L680.209 267.391L643.282 235.963Z" fill="#8bd5ff" fill-rule="nonzero" opacity="0.976596" stroke="none" vectornator:layerName="Rectangle 93"/>
<path d="M674.989 199.363L706.697 162.762L743.624 194.19L711.917 230.79L674.989 199.363Z" fill="#8bd5ff" fill-rule="nonzero" opacity="0.976596" stroke="none" vectornator:layerName="Rectangle 94"/>
<path d="M743.624 194.19L775.332 157.589L812.259 189.016L780.552 225.617L743.624 194.19Z" fill="#8bd5ff" fill-rule="nonzero" opacity="0.976596" stroke="none" vectornator:layerName="Rectangle 95"/>
<path d="M775.332 157.589L807.04 120.988L843.967 152.416L812.259 189.016L775.332 157.589Z" fill="#8bd5ff" fill-rule="nonzero" opacity="0.976596" stroke="none" vectornator:layerName="Rectangle 96"/>
<path d="M843.967 152.416L875.675 115.815L912.602 147.242L880.894 183.843L843.967 152.416Z" fill="#8bd5ff" fill-rule="nonzero" opacity="0.976596" stroke="none" vectornator:layerName="Rectangle 97"/>
<path d="M754.063 330.245L785.771 293.644L822.698 325.071L790.991 361.672L754.063 330.245Z" fill="#418aff" fill-rule="nonzero" opacity="0.976596" stroke="none" vectornator:layerName="Rectangle 150"/>
<path d="M790.991 361.672L822.698 325.071L859.626 356.499L827.918 393.099L790.991 361.672Z" fill="#418aff" fill-rule="nonzero" opacity="0.976596" stroke="none" vectornator:layerName="Rectangle 151"/>
<path d="M822.698 325.071L854.406 288.471L891.333 319.898L859.626 356.499L822.698 325.071Z" fill="#418aff" fill-rule="nonzero" opacity="0.976596" stroke="none" vectornator:layerName="Rectangle 153"/>
<path d="M785.771 293.644L817.479 257.044L854.406 288.471L822.698 325.071L785.771 293.644Z" fill="#418aff" fill-rule="nonzero" opacity="0.976596" stroke="none" vectornator:layerName="Rectangle 154"/>
<path d="M891.333 319.898L923.041 283.298L959.968 314.725L928.261 351.325L891.333 319.898Z" fill="#418aff" fill-rule="nonzero" opacity="0.976596" stroke="none" vectornator:layerName="Rectangle 155"/>
<path d="M854.406 288.471L886.114 251.87L923.041 283.298L891.333 319.898L854.406 288.471Z" fill="#418aff" fill-rule="nonzero" opacity="0.976596" stroke="none" vectornator:layerName="Rectangle 156"/>
<path d="M817.479 257.044L849.187 220.443L886.114 251.87L854.406 288.471L817.479 257.044Z" fill="#418aff" fill-rule="nonzero" opacity="0.976596" stroke="none" vectornator:layerName="Rectangle 157"/>
<path d="M780.552 225.617L812.259 189.016L849.187 220.443L817.479 257.044L780.552 225.617Z" fill="#418aff" fill-rule="nonzero" opacity="0.976596" stroke="none" vectornator:layerName="Rectangle 158"/>
<path d="M812.259 189.016L843.967 152.416L880.894 183.843L849.187 220.443L812.259 189.016Z" fill="#418aff" fill-rule="nonzero" opacity="0.976596" stroke="none" vectornator:layerName="Rectangle 159"/>
<path d="M849.187 220.443L880.894 183.843L917.822 215.27L886.114 251.87L849.187 220.443Z" fill="#418aff" fill-rule="nonzero" opacity="0.976596" stroke="none" vectornator:layerName="Rectangle 160"/>
<path d="M886.114 251.87L917.822 215.27L954.749 246.697L923.041 283.298L886.114 251.87Z" fill="#418aff" fill-rule="nonzero" opacity="0.976596" stroke="none" vectornator:layerName="Rectangle 161"/>
<path d="M880.894 183.843L912.602 147.242L949.529 178.669L917.822 215.27L880.894 183.843Z" fill="#418aff" fill-rule="nonzero" opacity="0.976596" stroke="none" vectornator:layerName="Rectangle 162"/>
<path d="M917.822 215.27L949.529 178.669L986.457 210.097L954.749 246.697L917.822 215.27Z" fill="#418aff" fill-rule="nonzero" opacity="0.976596" stroke="none" vectornator:layerName="Rectangle 163"/>
<path d="M923.041 283.298L954.749 246.697L991.676 278.124L959.968 314.725L923.041 283.298Z" fill="#418aff" fill-rule="nonzero" opacity="0.976596" stroke="none" vectornator:layerName="Rectangle 164"/>
</g>
</svg>
