<?xml version="1.0" encoding="UTF-8" standalone="no"?>
<!DOCTYPE svg PUBLIC "-//W3C//DTD SVG 1.1//EN" "http://www.w3.org/Graphics/SVG/1.1/DTD/svg11.dtd">
<!-- Created with Vectornator (http://vectornator.io/) -->
<svg height="100%" stroke-miterlimit="10" style="fill-rule:nonzero;clip-rule:evenodd;stroke-linecap:round;stroke-linejoin:round;" version="1.1" viewBox="0 0 1080 1080" width="100%" xml:space="preserve" xmlns="http://www.w3.org/2000/svg" xmlns:vectornator="http://vectornator.io" xmlns:xlink="http://www.w3.org/1999/xlink">
<defs/>
<g id="Calque-1" vectornator:layerName="Calque 1">
<path d="M280.159 339.577L329.159 339.577L329.159 388.577L280.159 388.577L280.159 339.577Z" fill="#150b14" fill-rule="nonzero" opacity="1" stroke="none" vectornator:layerName="Rectangle 1"/>
<path d="M329.159 339.577L378.159 339.577L378.159 388.577L329.159 388.577L329.159 339.577Z" fill="#150b14" fill-rule="nonzero" opacity="1" stroke="none" vectornator:layerName="Rectangle 2"/>
<path d="M329.159 290.577L378.159 290.577L378.159 339.577L329.159 339.577L329.159 290.577Z" fill="#150b14" fill-rule="nonzero" opacity="1" stroke="none" vectornator:layerName="Rectangle 3"/>
<path d="M378.159 241.577L427.159 241.577L427.159 290.577L378.159 290.577L378.159 241.577Z" fill="#150b14" fill-rule="nonzero" opacity="1" stroke="none" vectornator:layerName="Rectangle 4"/>
<path d="M427.159 192.577L476.159 192.577L476.159 241.577L427.159 241.577L427.159 192.577Z" fill="#150b14" fill-rule="nonzero" opacity="1" stroke="none" vectornator:layerName="Rectangle 5"/>
<path d="M476.159 143.577L525.159 143.577L525.159 192.577L476.159 192.577L476.159 143.577Z" fill="#150b14" fill-rule="nonzero" opacity="1" stroke="none" vectornator:layerName="Rectangle 6"/>
<path d="M525.159 94.5769L574.159 94.5769L574.159 143.577L525.159 143.577L525.159 94.5769Z" fill="#150b14" fill-rule="nonzero" opacity="1" stroke="none" vectornator:layerName="Rectangle 7"/>
<path d="M574.159 94.5769L623.159 94.5769L623.159 143.577L574.159 143.577L574.159 94.5769Z" fill="#150b14" fill-rule="nonzero" opacity="1" stroke="none" vectornator:layerName="Rectangle 8"/>
<path d="M623.159 94.5769L672.159 94.5769L672.159 143.577L623.159 143.577L623.159 94.5769Z" fill="#150b14" fill-rule="nonzero" opacity="1" stroke="none" vectornator:layerName="Rectangle 9"/>
<path d="M672.159 94.5769L721.159 94.5769L721.159 143.577L672.159 143.577L672.159 94.5769Z" fill="#150b14" fill-rule="nonzero" opacity="1" stroke="none" vectornator:layerName="Rectangle 92"/>
<path d="M721.159 94.5769L770.159 94.5769L770.159 143.577L721.159 143.577L721.159 94.5769Z" fill="#150b14" fill-rule="nonzero" opacity="1" stroke="none" vectornator:layerName="Rectangle 93"/>
<path d="M770.159 143.577L819.159 143.577L819.159 192.577L770.159 192.577L770.159 143.577Z" fill="#150b14" fill-rule="nonzero" opacity="1" stroke="none" vectornator:layerName="Rectangle 94"/>
<path d="M819.159 192.577L868.159 192.577L868.159 241.577L819.159 241.577L819.159 192.577Z" fill="#150b14" fill-rule="nonzero" opacity="1" stroke="none" vectornator:layerName="Rectangle 95"/>
<path d="M868.159 241.577L917.159 241.577L917.159 290.577L868.159 290.577L868.159 241.577Z" fill="#150b14" fill-rule="nonzero" opacity="1" stroke="none" vectornator:layerName="Rectangle 96"/>
<path d="M868.159 290.577L917.159 290.577L917.159 339.577L868.159 339.577L868.159 290.577Z" fill="#150b14" fill-rule="nonzero" opacity="1" stroke="none" vectornator:layerName="Rectangle 97"/>
<path d="M917.159 339.577L966.159 339.577L966.159 388.577L917.159 388.577L917.159 339.577Z" fill="#150b14" fill-rule="nonzero" opacity="1" stroke="none" vectornator:layerName="Rectangle 98"/>
<path d="M917.159 388.577L966.159 388.577L966.159 437.577L917.159 437.577L917.159 388.577Z" fill="#150b14" fill-rule="nonzero" opacity="1" stroke="none" vectornator:layerName="Rectangle 99"/>
<path d="M917.159 437.577L966.159 437.577L966.159 486.577L917.159 486.577L917.159 437.577Z" fill="#150b14" fill-rule="nonzero" opacity="1" stroke="none" vectornator:layerName="Rectangle 100"/>
<path d="M917.159 486.577L966.159 486.577L966.159 535.577L917.159 535.577L917.159 486.577Z" fill="#150b14" fill-rule="nonzero" opacity="1" stroke="none" vectornator:layerName="Rectangle 101"/>
<path d="M868.159 535.577L917.159 535.577L917.159 584.577L868.159 584.577L868.159 535.577Z" fill="#150b14" fill-rule="nonzero" opacity="1" stroke="none" vectornator:layerName="Rectangle 102"/>
<path d="M868.159 584.577L917.159 584.577L917.159 633.577L868.159 633.577L868.159 584.577Z" fill="#150b14" fill-rule="nonzero" opacity="1" stroke="none" vectornator:layerName="Rectangle 103"/>
<path d="M819.159 633.577L868.159 633.577L868.159 682.577L819.159 682.577L819.159 633.577Z" fill="#150b14" fill-rule="nonzero" opacity="1" stroke="none" vectornator:layerName="Rectangle 104"/>
<path d="M770.159 682.577L819.159 682.577L819.159 731.577L770.159 731.577L770.159 682.577Z" fill="#150b14" fill-rule="nonzero" opacity="1" stroke="none" vectornator:layerName="Rectangle 105"/>
<path d="M721.159 682.577L770.159 682.577L770.159 731.577L721.159 731.577L721.159 682.577Z" fill="#150b14" fill-rule="nonzero" opacity="1" stroke="none" vectornator:layerName="Rectangle 106"/>
<path d="M672.159 731.577L721.159 731.577L721.159 780.577L672.159 780.577L672.159 731.577Z" fill="#150b14" fill-rule="nonzero" opacity="1" stroke="none" vectornator:layerName="Rectangle 107"/>
<path d="M623.159 731.577L672.159 731.577L672.159 780.577L623.159 780.577L623.159 731.577Z" fill="#150b14" fill-rule="nonzero" opacity="1" stroke="none" vectornator:layerName="Rectangle 108"/>
<path d="M574.159 731.577L623.159 731.577L623.159 780.577L574.159 780.577L574.159 731.577Z" fill="#150b14" fill-rule="nonzero" opacity="1" stroke="none" vectornator:layerName="Rectangle 109"/>
<path d="M525.159 780.577L574.159 780.577L574.159 829.577L525.159 829.577L525.159 780.577Z" fill="#150b14" fill-rule="nonzero" opacity="1" stroke="none" vectornator:layerName="Rectangle 110"/>
<path d="M476.159 780.577L525.159 780.577L525.159 829.577L476.159 829.577L476.159 780.577Z" fill="#150b14" fill-rule="nonzero" opacity="1" stroke="none" vectornator:layerName="Rectangle 111"/>
<path d="M427.159 829.577L476.159 829.577L476.159 878.577L427.159 878.577L427.159 829.577Z" fill="#150b14" fill-rule="nonzero" opacity="1" stroke="none" vectornator:layerName="Rectangle 112"/>
<path d="M378.159 829.577L427.159 829.577L427.159 878.577L378.159 878.577L378.159 829.577Z" fill="#150b14" fill-rule="nonzero" opacity="1" stroke="none" vectornator:layerName="Rectangle 113"/>
<path d="M329.159 878.577L378.159 878.577L378.159 927.577L329.159 927.577L329.159 878.577Z" fill="#150b14" fill-rule="nonzero" opacity="1" stroke="none" vectornator:layerName="Rectangle 114"/>
<path d="M280.159 878.577L329.159 878.577L329.159 927.577L280.159 927.577L280.159 878.577Z" fill="#150b14" fill-rule="nonzero" opacity="1" stroke="none" vectornator:layerName="Rectangle 115"/>
<path d="M231.159 878.577L280.159 878.577L280.159 927.577L231.159 927.577L231.159 878.577Z" fill="#150b14" fill-rule="nonzero" opacity="1" stroke="none" vectornator:layerName="Rectangle 116"/>
<path d="M182.159 829.577L231.159 829.577L231.159 878.577L182.159 878.577L182.159 829.577Z" fill="#150b14" fill-rule="nonzero" opacity="1" stroke="none" vectornator:layerName="Rectangle 117"/>
<path d="M133.159 829.577L182.159 829.577L182.159 878.577L133.159 878.577L133.159 829.577Z" fill="#150b14" fill-rule="nonzero" opacity="1" stroke="none" vectornator:layerName="Rectangle 118"/>
<path d="M84.159 780.577L133.159 780.577L133.159 829.577L84.159 829.577L84.159 780.577Z" fill="#150b14" fill-rule="nonzero" opacity="1" stroke="none" vectornator:layerName="Rectangle 119"/>
<path d="M35.159 731.577L84.159 731.577L84.159 780.577L35.159 780.577L35.159 731.577Z" fill="#150b14" fill-rule="nonzero" opacity="1" stroke="none" vectornator:layerName="Rectangle 120"/>
<path d="M35.159 682.577L84.159 682.577L84.159 731.577L35.159 731.577L35.159 682.577Z" fill="#150b14" fill-rule="nonzero" opacity="1" stroke="none" vectornator:layerName="Rectangle 121"/>
<path d="M35.159 633.577L84.159 633.577L84.159 682.577L35.159 682.577L35.159 633.577Z" fill="#150b14" fill-rule="nonzero" opacity="1" stroke="none" vectornator:layerName="Rectangle 122"/>
<path d="M35.159 584.577L84.159 584.577L84.159 633.577L35.159 633.577L35.159 584.577Z" fill="#150b14" fill-rule="nonzero" opacity="1" stroke="none" vectornator:layerName="Rectangle 123"/>
<path d="M35.159 535.577L84.159 535.577L84.159 584.577L35.159 584.577L35.159 535.577Z" fill="#150b14" fill-rule="nonzero" opacity="1" stroke="none" vectornator:layerName="Rectangle 124"/>
<path d="M35.159 486.577L84.159 486.577L84.159 535.577L35.159 535.577L35.159 486.577Z" fill="#150b14" fill-rule="nonzero" opacity="1" stroke="none" vectornator:layerName="Rectangle 125"/>
<path d="M231.159 388.577L280.159 388.577L280.159 437.577L231.159 437.577L231.159 388.577Z" fill="#150b14" fill-rule="nonzero" opacity="1" stroke="none" vectornator:layerName="Rectangle 10"/>
<path d="M182.159 388.577L231.159 388.577L231.159 437.577L182.159 437.577L182.159 388.577Z" fill="#150b14" fill-rule="nonzero" opacity="1" stroke="none" vectornator:layerName="Rectangle 11"/>
<path d="M133.159 388.577L182.159 388.577L182.159 437.577L133.159 437.577L133.159 388.577Z" fill="#150b14" fill-rule="nonzero" opacity="1" stroke="none" vectornator:layerName="Rectangle 12"/>
<path d="M84.159 437.577L133.159 437.577L133.159 486.577L84.159 486.577L84.159 437.577Z" fill="#150b14" fill-rule="nonzero" opacity="1" stroke="none" vectornator:layerName="Rectangle 13"/>
<path d="M280.159 388.577L329.159 388.577L329.159 437.577L280.159 437.577L280.159 388.577Z" fill="#dab7c9" fill-rule="nonzero" opacity="1" stroke="none" vectornator:layerName="Rectangle 14"/>
<path d="M329.159 388.577L378.159 388.577L378.159 437.577L329.159 437.577L329.159 388.577Z" fill="#dab7c9" fill-rule="nonzero" opacity="1" stroke="none" vectornator:layerName="Rectangle 15"/>
<path d="M378.159 339.577L427.159 339.577L427.159 388.577L378.159 388.577L378.159 339.577Z" fill="#dab7c9" fill-rule="nonzero" opacity="1" stroke="none" vectornator:layerName="Rectangle 16"/>
<path d="M525.159 339.577L574.159 339.577L574.159 388.577L525.159 388.577L525.159 339.577Z" fill="#dab7c9" fill-rule="nonzero" opacity="1" stroke="none" vectornator:layerName="Rectangle 37"/>
<path d="M574.159 290.577L623.159 290.577L623.159 339.577L574.159 339.577L574.159 290.577Z" fill="#dab7c9" fill-rule="nonzero" opacity="1" stroke="none" vectornator:layerName="Rectangle 38"/>
<path d="M574.159 339.577L623.159 339.577L623.159 388.577L574.159 388.577L574.159 339.577Z" fill="#9e748a" fill-rule="nonzero" opacity="1" stroke="none" vectornator:layerName="Rectangle 186"/>
<path d="M623.159 339.577L672.159 339.577L672.159 388.577L623.159 388.577L623.159 339.577Z" fill="#9e748a" fill-rule="nonzero" opacity="1" stroke="none" vectornator:layerName="Rectangle 187"/>
<path d="M672.159 339.577L721.159 339.577L721.159 388.577L672.159 388.577L672.159 339.577Z" fill="#9e748a" fill-rule="nonzero" opacity="1" stroke="none" vectornator:layerName="Rectangle 188"/>
<path d="M868.159 486.577L917.159 486.577L917.159 535.577L868.159 535.577L868.159 486.577Z" fill="#9e748a" fill-rule="nonzero" opacity="1" stroke="none" vectornator:layerName="Rectangle 189"/>
<path d="M819.159 535.577L868.159 535.577L868.159 584.577L819.159 584.577L819.159 535.577Z" fill="#9e748a" fill-rule="nonzero" opacity="1" stroke="none" vectornator:layerName="Rectangle 190"/>
<path d="M819.159 584.577L868.159 584.577L868.159 633.577L819.159 633.577L819.159 584.577Z" fill="#9e748a" fill-rule="nonzero" opacity="1" stroke="none" vectornator:layerName="Rectangle 191"/>
<path d="M770.159 584.577L819.159 584.577L819.159 633.577L770.159 633.577L770.159 584.577Z" fill="#9e748a" fill-rule="nonzero" opacity="1" stroke="none" vectornator:layerName="Rectangle 192"/>
<path d="M721.159 584.577L770.159 584.577L770.159 633.577L721.159 633.577L721.159 584.577Z" fill="#9e748a" fill-rule="nonzero" opacity="1" stroke="none" vectornator:layerName="Rectangle 193"/>
<path d="M770.159 633.577L819.159 633.577L819.159 682.577L770.159 682.577L770.159 633.577Z" fill="#9e748a" fill-rule="nonzero" opacity="1" stroke="none" vectornator:layerName="Rectangle 194"/>
<path d="M721.159 633.577L770.159 633.577L770.159 682.577L721.159 682.577L721.159 633.577Z" fill="#9e748a" fill-rule="nonzero" opacity="1" stroke="none" vectornator:layerName="Rectangle 195"/>
<path d="M672.159 633.577L721.159 633.577L721.159 682.577L672.159 682.577L672.159 633.577Z" fill="#9e748a" fill-rule="nonzero" opacity="1" stroke="none" vectornator:layerName="Rectangle 196"/>
<path d="M672.159 682.577L721.159 682.577L721.159 731.577L672.159 731.577L672.159 682.577Z" fill="#9e748a" fill-rule="nonzero" opacity="1" stroke="none" vectornator:layerName="Rectangle 197"/>
<path d="M623.159 633.577L672.159 633.577L672.159 682.577L623.159 682.577L623.159 633.577Z" fill="#9e748a" fill-rule="nonzero" opacity="1" stroke="none" vectornator:layerName="Rectangle 198"/>
<path d="M623.159 682.577L672.159 682.577L672.159 731.577L623.159 731.577L623.159 682.577Z" fill="#9e748a" fill-rule="nonzero" opacity="1" stroke="none" vectornator:layerName="Rectangle 199"/>
<path d="M574.159 682.577L623.159 682.577L623.159 731.577L574.159 731.577L574.159 682.577Z" fill="#9e748a" fill-rule="nonzero" opacity="1" stroke="none" vectornator:layerName="Rectangle 200"/>
<path d="M525.159 682.577L574.159 682.577L574.159 731.577L525.159 731.577L525.159 682.577Z" fill="#9e748a" fill-rule="nonzero" opacity="1" stroke="none" vectornator:layerName="Rectangle 201"/>
<path d="M525.159 731.577L574.159 731.577L574.159 780.577L525.159 780.577L525.159 731.577Z" fill="#9e748a" fill-rule="nonzero" opacity="1" stroke="none" vectornator:layerName="Rectangle 202"/>
<path d="M476.159 731.577L525.159 731.577L525.159 780.577L476.159 780.577L476.159 731.577Z" fill="#9e748a" fill-rule="nonzero" opacity="1" stroke="none" vectornator:layerName="Rectangle 203"/>
<path d="M427.159 731.577L476.159 731.577L476.159 780.577L427.159 780.577L427.159 731.577Z" fill="#9e748a" fill-rule="nonzero" opacity="1" stroke="none" vectornator:layerName="Rectangle 204"/>
<path d="M378.159 731.577L427.159 731.577L427.159 780.577L378.159 780.577L378.159 731.577Z" fill="#9e748a" fill-rule="nonzero" opacity="1" stroke="none" vectornator:layerName="Rectangle 205"/>
<path d="M84.159 682.577L133.159 682.577L133.159 731.577L84.159 731.577L84.159 682.577Z" fill="#9e748a" fill-rule="nonzero" opacity="1" stroke="none" vectornator:layerName="Rectangle 206"/>
<path d="M84.159 731.577L133.159 731.577L133.159 780.577L84.159 780.577L84.159 731.577Z" fill="#9e748a" fill-rule="nonzero" opacity="1" stroke="none" vectornator:layerName="Rectangle 207"/>
<path d="M133.159 731.577L182.159 731.577L182.159 780.577L133.159 780.577L133.159 731.577Z" fill="#9e748a" fill-rule="nonzero" opacity="1" stroke="none" vectornator:layerName="Rectangle 208"/>
<path d="M133.159 780.577L182.159 780.577L182.159 829.577L133.159 829.577L133.159 780.577Z" fill="#9e748a" fill-rule="nonzero" opacity="1" stroke="none" vectornator:layerName="Rectangle 209"/>
<path d="M182.159 780.577L231.159 780.577L231.159 829.577L182.159 829.577L182.159 780.577Z" fill="#9e748a" fill-rule="nonzero" opacity="1" stroke="none" vectornator:layerName="Rectangle 210"/>
<path d="M231.159 780.577L280.159 780.577L280.159 829.577L231.159 829.577L231.159 780.577Z" fill="#9e748a" fill-rule="nonzero" opacity="1" stroke="none" vectornator:layerName="Rectangle 211"/>
<path d="M231.159 829.577L280.159 829.577L280.159 878.577L231.159 878.577L231.159 829.577Z" fill="#9e748a" fill-rule="nonzero" opacity="1" stroke="none" vectornator:layerName="Rectangle 212"/>
<path d="M280.159 780.577L329.159 780.577L329.159 829.577L280.159 829.577L280.159 780.577Z" fill="#9e748a" fill-rule="nonzero" opacity="1" stroke="none" vectornator:layerName="Rectangle 213"/>
<path d="M329.159 780.577L378.159 780.577L378.159 829.577L329.159 829.577L329.159 780.577Z" fill="#9e748a" fill-rule="nonzero" opacity="1" stroke="none" vectornator:layerName="Rectangle 214"/>
<path d="M280.159 829.577L329.159 829.577L329.159 878.577L280.159 878.577L280.159 829.577Z" fill="#9e748a" fill-rule="nonzero" opacity="1" stroke="none" vectornator:layerName="Rectangle 215"/>
<path d="M329.159 829.577L378.159 829.577L378.159 878.577L329.159 878.577L329.159 829.577Z" fill="#9e748a" fill-rule="nonzero" opacity="1" stroke="none" vectornator:layerName="Rectangle 216"/>
<path d="M378.159 780.577L427.159 780.577L427.159 829.577L378.159 829.577L378.159 780.577Z" fill="#9e748a" fill-rule="nonzero" opacity="1" stroke="none" vectornator:layerName="Rectangle 217"/>
<path d="M427.159 780.577L476.159 780.577L476.159 829.577L427.159 829.577L427.159 780.577Z" fill="#9e748a" fill-rule="nonzero" opacity="1" stroke="none" vectornator:layerName="Rectangle 218"/>
<path d="M574.159 388.577L623.159 388.577L623.159 437.577L574.159 437.577L574.159 388.577Z" fill="#dab7c9" fill-rule="nonzero" opacity="1" stroke="none" vectornator:layerName="Rectangle 39"/>
<path d="M623.159 290.577L672.159 290.577L672.159 339.577L623.159 339.577L623.159 290.577Z" fill="#dab7c9" fill-rule="nonzero" opacity="1" stroke="none" vectornator:layerName="Rectangle 40"/>
<path d="M623.159 388.577L672.159 388.577L672.159 437.577L623.159 437.577L623.159 388.577Z" fill="#dab7c9" fill-rule="nonzero" opacity="1" stroke="none" vectornator:layerName="Rectangle 41"/>
<path d="M672.159 290.577L721.159 290.577L721.159 339.577L672.159 339.577L672.159 290.577Z" fill="#dab7c9" fill-rule="nonzero" opacity="1" stroke="none" vectornator:layerName="Rectangle 42"/>
<path d="M672.159 388.577L721.159 388.577L721.159 437.577L672.159 437.577L672.159 388.577Z" fill="#dab7c9" fill-rule="nonzero" opacity="1" stroke="none" vectornator:layerName="Rectangle 43"/>
<path d="M721.159 339.577L770.159 339.577L770.159 388.577L721.159 388.577L721.159 339.577Z" fill="#dab7c9" fill-rule="nonzero" opacity="1" stroke="none" vectornator:layerName="Rectangle 44"/>
<path d="M427.159 339.577L476.159 339.577L476.159 388.577L427.159 388.577L427.159 339.577Z" fill="#9c2424" fill-rule="nonzero" opacity="1" stroke="none" vectornator:layerName="Rectangle 36"/>
<path d="M378.159 290.577L427.159 290.577L427.159 339.577L378.159 339.577L378.159 290.577Z" fill="#dab7c9" fill-rule="nonzero" opacity="1" stroke="none" vectornator:layerName="Rectangle 17"/>
<path d="M427.159 241.577L476.159 241.577L476.159 290.577L427.159 290.577L427.159 241.577Z" fill="#dab7c9" fill-rule="nonzero" opacity="1" stroke="none" vectornator:layerName="Rectangle 18"/>
<path d="M476.159 192.577L525.159 192.577L525.159 241.577L476.159 241.577L476.159 192.577Z" fill="#dab7c9" fill-rule="nonzero" opacity="1" stroke="none" vectornator:layerName="Rectangle 19"/>
<path d="M525.159 143.577L574.159 143.577L574.159 192.577L525.159 192.577L525.159 143.577Z" fill="#dab7c9" fill-rule="nonzero" opacity="1" stroke="none" vectornator:layerName="Rectangle 20"/>
<path d="M574.159 143.577L623.159 143.577L623.159 192.577L574.159 192.577L574.159 143.577Z" fill="#dab7c9" fill-rule="nonzero" opacity="1" stroke="none" vectornator:layerName="Rectangle 45"/>
<path d="M623.159 143.577L672.159 143.577L672.159 192.577L623.159 192.577L623.159 143.577Z" fill="#dab7c9" fill-rule="nonzero" opacity="1" stroke="none" vectornator:layerName="Rectangle 46"/>
<path d="M672.159 143.577L721.159 143.577L721.159 192.577L672.159 192.577L672.159 143.577Z" fill="#dab7c9" fill-rule="nonzero" opacity="1" stroke="none" vectornator:layerName="Rectangle 47"/>
<path d="M721.159 143.577L770.159 143.577L770.159 192.577L721.159 192.577L721.159 143.577Z" fill="#dab7c9" fill-rule="nonzero" opacity="1" stroke="none" vectornator:layerName="Rectangle 48"/>
<path d="M770.159 192.577L819.159 192.577L819.159 241.577L770.159 241.577L770.159 192.577Z" fill="#dab7c9" fill-rule="nonzero" opacity="1" stroke="none" vectornator:layerName="Rectangle 49"/>
<path d="M819.159 241.577L868.159 241.577L868.159 290.577L819.159 290.577L819.159 241.577Z" fill="#dab7c9" fill-rule="nonzero" opacity="1" stroke="none" vectornator:layerName="Rectangle 50"/>
<path d="M819.159 290.577L868.159 290.577L868.159 339.577L819.159 339.577L819.159 290.577Z" fill="#dab7c9" fill-rule="nonzero" opacity="1" stroke="none" vectornator:layerName="Rectangle 51"/>
<path d="M868.159 339.577L917.159 339.577L917.159 388.577L868.159 388.577L868.159 339.577Z" fill="#dab7c9" fill-rule="nonzero" opacity="1" stroke="none" vectornator:layerName="Rectangle 52"/>
<path d="M868.159 388.577L917.159 388.577L917.159 437.577L868.159 437.577L868.159 388.577Z" fill="#dab7c9" fill-rule="nonzero" opacity="1" stroke="none" vectornator:layerName="Rectangle 53"/>
<path d="M868.159 437.577L917.159 437.577L917.159 486.577L868.159 486.577L868.159 437.577Z" fill="#dab7c9" fill-rule="nonzero" opacity="1" stroke="none" vectornator:layerName="Rectangle 54"/>
<path d="M819.159 437.577L868.159 437.577L868.159 486.577L819.159 486.577L819.159 437.577Z" fill="#dab7c9" fill-rule="nonzero" opacity="1" stroke="none" vectornator:layerName="Rectangle 55"/>
<path d="M819.159 486.577L868.159 486.577L868.159 535.577L819.159 535.577L819.159 486.577Z" fill="#dab7c9" fill-rule="nonzero" opacity="1" stroke="none" vectornator:layerName="Rectangle 56"/>
<path d="M770.159 486.577L819.159 486.577L819.159 535.577L770.159 535.577L770.159 486.577Z" fill="#dab7c9" fill-rule="nonzero" opacity="1" stroke="none" vectornator:layerName="Rectangle 57"/>
<path d="M770.159 535.577L819.159 535.577L819.159 584.577L770.159 584.577L770.159 535.577Z" fill="#dab7c9" fill-rule="nonzero" opacity="1" stroke="none" vectornator:layerName="Rectangle 58"/>
<path d="M721.159 535.577L770.159 535.577L770.159 584.577L721.159 584.577L721.159 535.577Z" fill="#dab7c9" fill-rule="nonzero" opacity="1" stroke="none" vectornator:layerName="Rectangle 59"/>
<path d="M672.159 584.577L721.159 584.577L721.159 633.577L672.159 633.577L672.159 584.577Z" fill="#dab7c9" fill-rule="nonzero" opacity="1" stroke="none" vectornator:layerName="Rectangle 60"/>
<path d="M623.159 584.577L672.159 584.577L672.159 633.577L623.159 633.577L623.159 584.577Z" fill="#dab7c9" fill-rule="nonzero" opacity="1" stroke="none" vectornator:layerName="Rectangle 61"/>
<path d="M574.159 633.577L623.159 633.577L623.159 682.577L574.159 682.577L574.159 633.577Z" fill="#dab7c9" fill-rule="nonzero" opacity="1" stroke="none" vectornator:layerName="Rectangle 62"/>
<path d="M525.159 633.577L574.159 633.577L574.159 682.577L525.159 682.577L525.159 633.577Z" fill="#dab7c9" fill-rule="nonzero" opacity="1" stroke="none" vectornator:layerName="Rectangle 63"/>
<path d="M476.159 633.577L525.159 633.577L525.159 682.577L476.159 682.577L476.159 633.577Z" fill="#dab7c9" fill-rule="nonzero" opacity="1" stroke="none" vectornator:layerName="Rectangle 64"/>
<path d="M476.159 682.577L525.159 682.577L525.159 731.577L476.159 731.577L476.159 682.577Z" fill="#dab7c9" fill-rule="nonzero" opacity="1" stroke="none" vectornator:layerName="Rectangle 65"/>
<path d="M427.159 682.577L476.159 682.577L476.159 731.577L427.159 731.577L427.159 682.577Z" fill="#dab7c9" fill-rule="nonzero" opacity="1" stroke="none" vectornator:layerName="Rectangle 66"/>
<path d="M378.159 682.577L427.159 682.577L427.159 731.577L378.159 731.577L378.159 682.577Z" fill="#dab7c9" fill-rule="nonzero" opacity="1" stroke="none" vectornator:layerName="Rectangle 67"/>
<path d="M133.159 437.577L182.159 437.577L182.159 486.577L133.159 486.577L133.159 437.577Z" fill="#dab7c9" fill-rule="nonzero" opacity="1" stroke="none" vectornator:layerName="Rectangle 21"/>
<path d="M182.159 437.577L231.159 437.577L231.159 486.577L182.159 486.577L182.159 437.577Z" fill="#dab7c9" fill-rule="nonzero" opacity="1" stroke="none" vectornator:layerName="Rectangle 22"/>
<path d="M231.159 437.577L280.159 437.577L280.159 486.577L231.159 486.577L231.159 437.577Z" fill="#dab7c9" fill-rule="nonzero" opacity="1" stroke="none" vectornator:layerName="Rectangle 23"/>
<path d="M133.159 486.577L182.159 486.577L182.159 535.577L133.159 535.577L133.159 486.577Z" fill="#dab7c9" fill-rule="nonzero" opacity="1" stroke="none" vectornator:layerName="Rectangle 24"/>
<path d="M84.159 486.577L133.159 486.577L133.159 535.577L84.159 535.577L84.159 486.577Z" fill="#dab7c9" fill-rule="nonzero" opacity="1" stroke="none" vectornator:layerName="Rectangle 25"/>
<path d="M427.159 339.577L476.159 339.577L476.159 388.577L427.159 388.577L427.159 339.577Z" fill="#9c2424" fill-rule="nonzero" opacity="1" stroke="none" vectornator:layerName="Rectangle 27"/>
<path d="M427.159 388.577L476.159 388.577L476.159 437.577L427.159 437.577L427.159 388.577Z" fill="#9c2424" fill-rule="nonzero" opacity="1" stroke="none" vectornator:layerName="Rectangle 144"/>
<path d="M476.159 388.577L525.159 388.577L525.159 437.577L476.159 437.577L476.159 388.577Z" fill="#9c2424" fill-rule="nonzero" opacity="1" stroke="none" vectornator:layerName="Rectangle 145"/>
<path d="M378.159 388.577L427.159 388.577L427.159 437.577L378.159 437.577L378.159 388.577Z" fill="#9c2424" fill-rule="nonzero" opacity="1" stroke="none" vectornator:layerName="Rectangle 146"/>
<path d="M476.159 437.577L525.159 437.577L525.159 486.577L476.159 486.577L476.159 437.577Z" fill="#9c2424" fill-rule="nonzero" opacity="1" stroke="none" vectornator:layerName="Rectangle 147"/>
<path d="M427.159 437.577L476.159 437.577L476.159 486.577L427.159 486.577L427.159 437.577Z" fill="#9c2424" fill-rule="nonzero" opacity="1" stroke="none" vectornator:layerName="Rectangle 148"/>
<path d="M378.159 437.577L427.159 437.577L427.159 486.577L378.159 486.577L378.159 437.577Z" fill="#9c2424" fill-rule="nonzero" opacity="1" stroke="none" vectornator:layerName="Rectangle 149"/>
<path d="M329.159 437.577L378.159 437.577L378.159 486.577L329.159 486.577L329.159 437.577Z" fill="#9c2424" fill-rule="nonzero" opacity="1" stroke="none" vectornator:layerName="Rectangle 150"/>
<path d="M280.159 437.577L329.159 437.577L329.159 486.577L280.159 486.577L280.159 437.577Z" fill="#9c2424" fill-rule="nonzero" opacity="1" stroke="none" vectornator:layerName="Rectangle 151"/>
<path d="M476.159 486.577L525.159 486.577L525.159 535.577L476.159 535.577L476.159 486.577Z" fill="#9c2424" fill-rule="nonzero" opacity="1" stroke="none" vectornator:layerName="Rectangle 152"/>
<path d="M427.159 486.577L476.159 486.577L476.159 535.577L427.159 535.577L427.159 486.577Z" fill="#9c2424" fill-rule="nonzero" opacity="1" stroke="none" vectornator:layerName="Rectangle 153"/>
<path d="M378.159 486.577L427.159 486.577L427.159 535.577L378.159 535.577L378.159 486.577Z" fill="#9c2424" fill-rule="nonzero" opacity="1" stroke="none" vectornator:layerName="Rectangle 154"/>
<path d="M329.159 486.577L378.159 486.577L378.159 535.577L329.159 535.577L329.159 486.577Z" fill="#9c2424" fill-rule="nonzero" opacity="1" stroke="none" vectornator:layerName="Rectangle 155"/>
<path d="M280.159 486.577L329.159 486.577L329.159 535.577L280.159 535.577L280.159 486.577Z" fill="#9c2424" fill-rule="nonzero" opacity="1" stroke="none" vectornator:layerName="Rectangle 156"/>
<path d="M231.159 486.577L280.159 486.577L280.159 535.577L231.159 535.577L231.159 486.577Z" fill="#9c2424" fill-rule="nonzero" opacity="1" stroke="none" vectornator:layerName="Rectangle 157"/>
<path d="M182.159 486.577L231.159 486.577L231.159 535.577L182.159 535.577L182.159 486.577Z" fill="#9c2424" fill-rule="nonzero" opacity="1" stroke="none" vectornator:layerName="Rectangle 158"/>
<path d="M476.159 535.577L525.159 535.577L525.159 584.577L476.159 584.577L476.159 535.577Z" fill="#9c2424" fill-rule="nonzero" opacity="1" stroke="none" vectornator:layerName="Rectangle 159"/>
<path d="M427.159 535.577L476.159 535.577L476.159 584.577L427.159 584.577L427.159 535.577Z" fill="#9c2424" fill-rule="nonzero" opacity="1" stroke="none" vectornator:layerName="Rectangle 160"/>
<path d="M378.159 535.577L427.159 535.577L427.159 584.577L378.159 584.577L378.159 535.577Z" fill="#9c2424" fill-rule="nonzero" opacity="1" stroke="none" vectornator:layerName="Rectangle 161"/>
<path d="M329.159 535.577L378.159 535.577L378.159 584.577L329.159 584.577L329.159 535.577Z" fill="#9c2424" fill-rule="nonzero" opacity="1" stroke="none" vectornator:layerName="Rectangle 162"/>
<path d="M280.159 535.577L329.159 535.577L329.159 584.577L280.159 584.577L280.159 535.577Z" fill="#9c2424" fill-rule="nonzero" opacity="1" stroke="none" vectornator:layerName="Rectangle 163"/>
<path d="M231.159 535.577L280.159 535.577L280.159 584.577L231.159 584.577L231.159 535.577Z" fill="#9c2424" fill-rule="nonzero" opacity="1" stroke="none" vectornator:layerName="Rectangle 164"/>
<path d="M182.159 535.577L231.159 535.577L231.159 584.577L182.159 584.577L182.159 535.577Z" fill="#9c2424" fill-rule="nonzero" opacity="1" stroke="none" vectornator:layerName="Rectangle 165"/>
<path d="M133.159 535.577L182.159 535.577L182.159 584.577L133.159 584.577L133.159 535.577Z" fill="#9c2424" fill-rule="nonzero" opacity="1" stroke="none" vectornator:layerName="Rectangle 166"/>
<path d="M476.159 584.577L525.159 584.577L525.159 633.577L476.159 633.577L476.159 584.577Z" fill="#9c2424" fill-rule="nonzero" opacity="1" stroke="none" vectornator:layerName="Rectangle 167"/>
<path d="M427.159 584.577L476.159 584.577L476.159 633.577L427.159 633.577L427.159 584.577Z" fill="#9c2424" fill-rule="nonzero" opacity="1" stroke="none" vectornator:layerName="Rectangle 168"/>
<path d="M427.159 633.577L476.159 633.577L476.159 682.577L427.159 682.577L427.159 633.577Z" fill="#9c2424" fill-rule="nonzero" opacity="1" stroke="none" vectornator:layerName="Rectangle 169"/>
<path d="M378.159 584.577L427.159 584.577L427.159 633.577L378.159 633.577L378.159 584.577Z" fill="#9c2424" fill-rule="nonzero" opacity="1" stroke="none" vectornator:layerName="Rectangle 170"/>
<path d="M378.159 633.577L427.159 633.577L427.159 682.577L378.159 682.577L378.159 633.577Z" fill="#9c2424" fill-rule="nonzero" opacity="1" stroke="none" vectornator:layerName="Rectangle 171"/>
<path d="M133.159 584.577L182.159 584.577L182.159 633.577L133.159 633.577L133.159 584.577Z" fill="#9c2424" fill-rule="nonzero" opacity="1" stroke="none" vectornator:layerName="Rectangle 172"/>
<path d="M133.159 633.577L182.159 633.577L182.159 682.577L133.159 682.577L133.159 633.577Z" fill="#9c2424" fill-rule="nonzero" opacity="1" stroke="none" vectornator:layerName="Rectangle 173"/>
<path d="M182.159 682.577L231.159 682.577L231.159 731.577L182.159 731.577L182.159 682.577Z" fill="#9c2424" fill-rule="nonzero" opacity="1" stroke="none" vectornator:layerName="Rectangle 174"/>
<path d="M231.159 682.577L280.159 682.577L280.159 731.577L231.159 731.577L231.159 682.577Z" fill="#9c2424" fill-rule="nonzero" opacity="1" stroke="none" vectornator:layerName="Rectangle 175"/>
<path d="M280.159 682.577L329.159 682.577L329.159 731.577L280.159 731.577L280.159 682.577Z" fill="#9c2424" fill-rule="nonzero" opacity="1" stroke="none" vectornator:layerName="Rectangle 176"/>
<path d="M329.159 682.577L378.159 682.577L378.159 731.577L329.159 731.577L329.159 682.577Z" fill="#9c2424" fill-rule="nonzero" opacity="1" stroke="none" vectornator:layerName="Rectangle 177"/>
<path d="M182.159 633.577L231.159 633.577L231.159 682.577L182.159 682.577L182.159 633.577Z" fill="#9c2424" fill-rule="nonzero" opacity="1" stroke="none" vectornator:layerName="Rectangle 178"/>
<path d="M182.159 584.577L231.159 584.577L231.159 633.577L182.159 633.577L182.159 584.577Z" fill="#9c2424" fill-rule="nonzero" opacity="1" stroke="none" vectornator:layerName="Rectangle 179"/>
<path d="M231.159 584.577L280.159 584.577L280.159 633.577L231.159 633.577L231.159 584.577Z" fill="#9c2424" fill-rule="nonzero" opacity="1" stroke="none" vectornator:layerName="Rectangle 180"/>
<path d="M231.159 633.577L280.159 633.577L280.159 682.577L231.159 682.577L231.159 633.577Z" fill="#9c2424" fill-rule="nonzero" opacity="1" stroke="none" vectornator:layerName="Rectangle 181"/>
<path d="M280.159 584.577L329.159 584.577L329.159 633.577L280.159 633.577L280.159 584.577Z" fill="#9c2424" fill-rule="nonzero" opacity="1" stroke="none" vectornator:layerName="Rectangle 182"/>
<path d="M280.159 633.577L329.159 633.577L329.159 682.577L280.159 682.577L280.159 633.577Z" fill="#9c2424" fill-rule="nonzero" opacity="1" stroke="none" vectornator:layerName="Rectangle 183"/>
<path d="M329.159 633.577L378.159 633.577L378.159 682.577L329.159 682.577L329.159 633.577Z" fill="#9c2424" fill-rule="nonzero" opacity="1" stroke="none" vectornator:layerName="Rectangle 184"/>
<path d="M329.159 584.577L378.159 584.577L378.159 633.577L329.159 633.577L329.159 584.577Z" fill="#9c2424" fill-rule="nonzero" opacity="1" stroke="none" vectornator:layerName="Rectangle 185"/>
<path d="M427.159 290.577L476.159 290.577L476.159 339.577L427.159 339.577L427.159 290.577Z" fill="#9c2424" fill-rule="nonzero" opacity="1" stroke="none" vectornator:layerName="Rectangle 28"/>
<path d="M476.159 241.577L525.159 241.577L525.159 290.577L476.159 290.577L476.159 241.577Z" fill="#9c2424" fill-rule="nonzero" opacity="1" stroke="none" vectornator:layerName="Rectangle 29"/>
<path d="M525.159 192.577L574.159 192.577L574.159 241.577L525.159 241.577L525.159 192.577Z" fill="#9c2424" fill-rule="nonzero" opacity="1" stroke="none" vectornator:layerName="Rectangle 31"/>
<path d="M476.159 290.577L525.159 290.577L525.159 339.577L476.159 339.577L476.159 290.577Z" fill="#9c2424" fill-rule="nonzero" opacity="1" stroke="none" vectornator:layerName="Rectangle 32"/>
<path d="M476.159 339.577L525.159 339.577L525.159 388.577L476.159 388.577L476.159 339.577Z" fill="#9c2424" fill-rule="nonzero" opacity="1" stroke="none" vectornator:layerName="Rectangle 33"/>
<path d="M525.159 241.577L574.159 241.577L574.159 290.577L525.159 290.577L525.159 241.577Z" fill="#9c2424" fill-rule="nonzero" opacity="1" stroke="none" vectornator:layerName="Rectangle 34"/>
<path d="M525.159 290.577L574.159 290.577L574.159 339.577L525.159 339.577L525.159 290.577Z" fill="#9c2424" fill-rule="nonzero" opacity="1" stroke="none" vectornator:layerName="Rectangle 35"/>
<path d="M574.159 241.577L623.159 241.577L623.159 290.577L574.159 290.577L574.159 241.577Z" fill="#9c2424" fill-rule="nonzero" opacity="1" stroke="none" vectornator:layerName="Rectangle 76"/>
<path d="M574.159 192.577L623.159 192.577L623.159 241.577L574.159 241.577L574.159 192.577Z" fill="#9c2424" fill-rule="nonzero" opacity="1" stroke="none" vectornator:layerName="Rectangle 77"/>
<path d="M623.159 241.577L672.159 241.577L672.159 290.577L623.159 290.577L623.159 241.577Z" fill="#9c2424" fill-rule="nonzero" opacity="1" stroke="none" vectornator:layerName="Rectangle 78"/>
<path d="M623.159 192.577L672.159 192.577L672.159 241.577L623.159 241.577L623.159 192.577Z" fill="#9c2424" fill-rule="nonzero" opacity="1" stroke="none" vectornator:layerName="Rectangle 79"/>
<path d="M672.159 241.577L721.159 241.577L721.159 290.577L672.159 290.577L672.159 241.577Z" fill="#9c2424" fill-rule="nonzero" opacity="1" stroke="none" vectornator:layerName="Rectangle 80"/>
<path d="M672.159 192.577L721.159 192.577L721.159 241.577L672.159 241.577L672.159 192.577Z" fill="#9c2424" fill-rule="nonzero" opacity="1" stroke="none" vectornator:layerName="Rectangle 81"/>
<path d="M721.159 192.577L770.159 192.577L770.159 241.577L721.159 241.577L721.159 192.577Z" fill="#9c2424" fill-rule="nonzero" opacity="1" stroke="none" vectornator:layerName="Rectangle 82"/>
<path d="M329.159 731.577L378.159 731.577L378.159 780.577L329.159 780.577L329.159 731.577Z" fill="#dab7c9" fill-rule="nonzero" opacity="1" stroke="none" vectornator:layerName="Rectangle 68"/>
<path d="M280.159 731.577L329.159 731.577L329.159 780.577L280.159 780.577L280.159 731.577Z" fill="#dab7c9" fill-rule="nonzero" opacity="1" stroke="none" vectornator:layerName="Rectangle 69"/>
<path d="M231.159 731.577L280.159 731.577L280.159 780.577L231.159 780.577L231.159 731.577Z" fill="#dab7c9" fill-rule="nonzero" opacity="1" stroke="none" vectornator:layerName="Rectangle 70"/>
<path d="M182.159 731.577L231.159 731.577L231.159 780.577L182.159 780.577L182.159 731.577Z" fill="#dab7c9" fill-rule="nonzero" opacity="1" stroke="none" vectornator:layerName="Rectangle 71"/>
<path d="M133.159 682.577L182.159 682.577L182.159 731.577L133.159 731.577L133.159 682.577Z" fill="#dab7c9" fill-rule="nonzero" opacity="1" stroke="none" vectornator:layerName="Rectangle 72"/>
<path d="M84.159 633.577L133.159 633.577L133.159 682.577L84.159 682.577L84.159 633.577Z" fill="#dab7c9" fill-rule="nonzero" opacity="1" stroke="none" vectornator:layerName="Rectangle 73"/>
<path d="M84.159 584.577L133.159 584.577L133.159 633.577L84.159 633.577L84.159 584.577Z" fill="#dab7c9" fill-rule="nonzero" opacity="1" stroke="none" vectornator:layerName="Rectangle 74"/>
<path d="M84.159 535.577L133.159 535.577L133.159 584.577L84.159 584.577L84.159 535.577Z" fill="#dab7c9" fill-rule="nonzero" opacity="1" stroke="none" vectornator:layerName="Rectangle 75"/>
<path d="M721.159 241.577L770.159 241.577L770.159 290.577L721.159 290.577L721.159 241.577Z" fill="#9c2424" fill-rule="nonzero" opacity="1" stroke="none" vectornator:layerName="Rectangle 83"/>
<path d="M770.159 241.577L819.159 241.577L819.159 290.577L770.159 290.577L770.159 241.577Z" fill="#9c2424" fill-rule="nonzero" opacity="1" stroke="none" vectornator:layerName="Rectangle 84"/>
<path d="M721.159 290.577L770.159 290.577L770.159 339.577L721.159 339.577L721.159 290.577Z" fill="#9c2424" fill-rule="nonzero" opacity="1" stroke="none" vectornator:layerName="Rectangle 85"/>
<path d="M770.159 290.577L819.159 290.577L819.159 339.577L770.159 339.577L770.159 290.577Z" fill="#9c2424" fill-rule="nonzero" opacity="1" stroke="none" vectornator:layerName="Rectangle 86"/>
<path d="M770.159 339.577L819.159 339.577L819.159 388.577L770.159 388.577L770.159 339.577Z" fill="#9c2424" fill-rule="nonzero" opacity="1" stroke="none" vectornator:layerName="Rectangle 87"/>
<path d="M819.159 339.577L868.159 339.577L868.159 388.577L819.159 388.577L819.159 339.577Z" fill="#9c2424" fill-rule="nonzero" opacity="1" stroke="none" vectornator:layerName="Rectangle 88"/>
<path d="M819.159 388.577L868.159 388.577L868.159 437.577L819.159 437.577L819.159 388.577Z" fill="#9c2424" fill-rule="nonzero" opacity="1" stroke="none" vectornator:layerName="Rectangle 89"/>
<path d="M770.159 388.577L819.159 388.577L819.159 437.577L770.159 437.577L770.159 388.577Z" fill="#9c2424" fill-rule="nonzero" opacity="1" stroke="none" vectornator:layerName="Rectangle 90"/>
<path d="M721.159 388.577L770.159 388.577L770.159 437.577L721.159 437.577L721.159 388.577Z" fill="#9c2424" fill-rule="nonzero" opacity="1" stroke="none" vectornator:layerName="Rectangle 91"/>
<path d="M770.159 437.577L819.159 437.577L819.159 486.577L770.159 486.577L770.159 437.577Z" fill="#9c2424" fill-rule="nonzero" opacity="1" stroke="none" vectornator:layerName="Rectangle 126"/>
<path d="M721.159 437.577L770.159 437.577L770.159 486.577L721.159 486.577L721.159 437.577Z" fill="#9c2424" fill-rule="nonzero" opacity="1" stroke="none" vectornator:layerName="Rectangle 127"/>
<path d="M721.159 486.577L770.159 486.577L770.159 535.577L721.159 535.577L721.159 486.577Z" fill="#9c2424" fill-rule="nonzero" opacity="1" stroke="none" vectornator:layerName="Rectangle 128"/>
<path d="M672.159 535.577L721.159 535.577L721.159 584.577L672.159 584.577L672.159 535.577Z" fill="#9c2424" fill-rule="nonzero" opacity="1" stroke="none" vectornator:layerName="Rectangle 129"/>
<path d="M623.159 535.577L672.159 535.577L672.159 584.577L623.159 584.577L623.159 535.577Z" fill="#9c2424" fill-rule="nonzero" opacity="1" stroke="none" vectornator:layerName="Rectangle 132"/>
<path d="M623.159 486.577L672.159 486.577L672.159 535.577L623.159 535.577L623.159 486.577Z" fill="#9c2424" fill-rule="nonzero" opacity="1" stroke="none" vectornator:layerName="Rectangle 133"/>
<path d="M623.159 437.577L672.159 437.577L672.159 486.577L623.159 486.577L623.159 437.577Z" fill="#9c2424" fill-rule="nonzero" opacity="1" stroke="none" vectornator:layerName="Rectangle 134"/>
<path d="M574.159 584.577L623.159 584.577L623.159 633.577L574.159 633.577L574.159 584.577Z" fill="#9c2424" fill-rule="nonzero" opacity="1" stroke="none" vectornator:layerName="Rectangle 135"/>
<path d="M525.159 584.577L574.159 584.577L574.159 633.577L525.159 633.577L525.159 584.577Z" fill="#9c2424" fill-rule="nonzero" opacity="1" stroke="none" vectornator:layerName="Rectangle 136"/>
<path d="M574.159 535.577L623.159 535.577L623.159 584.577L574.159 584.577L574.159 535.577Z" fill="#9c2424" fill-rule="nonzero" opacity="1" stroke="none" vectornator:layerName="Rectangle 137"/>
<path d="M574.159 486.577L623.159 486.577L623.159 535.577L574.159 535.577L574.159 486.577Z" fill="#9c2424" fill-rule="nonzero" opacity="1" stroke="none" vectornator:layerName="Rectangle 138"/>
<path d="M574.159 437.577L623.159 437.577L623.159 486.577L574.159 486.577L574.159 437.577Z" fill="#9c2424" fill-rule="nonzero" opacity="1" stroke="none" vectornator:layerName="Rectangle 139"/>
<path d="M525.159 388.577L574.159 388.577L574.159 437.577L525.159 437.577L525.159 388.577Z" fill="#9c2424" fill-rule="nonzero" opacity="1" stroke="none" vectornator:layerName="Rectangle 140"/>
<path d="M525.159 437.577L574.159 437.577L574.159 486.577L525.159 486.577L525.159 437.577Z" fill="#9c2424" fill-rule="nonzero" opacity="1" stroke="none" vectornator:layerName="Rectangle 141"/>
<path d="M525.159 486.577L574.159 486.577L574.159 535.577L525.159 535.577L525.159 486.577Z" fill="#9c2424" fill-rule="nonzero" opacity="1" stroke="none" vectornator:layerName="Rectangle 142"/>
<path d="M525.159 535.577L574.159 535.577L574.159 584.577L525.159 584.577L525.159 535.577Z" fill="#9c2424" fill-rule="nonzero" opacity="1" stroke="none" vectornator:layerName="Rectangle 143"/>
<path d="M672.159 486.577L721.159 486.577L721.159 535.577L672.159 535.577L672.159 486.577Z" fill="#9c2424" fill-rule="nonzero" opacity="1" stroke="none" vectornator:layerName="Rectangle 130"/>
<path d="M672.159 437.577L721.159 437.577L721.159 486.577L672.159 486.577L672.159 437.577Z" fill="#9c2424" fill-rule="nonzero" opacity="1" stroke="none" vectornator:layerName="Rectangle 131"/>
</g>
</svg>
