<?xml version="1.0" encoding="UTF-8" standalone="no"?>
<!DOCTYPE svg PUBLIC "-//W3C//DTD SVG 1.1//EN" "http://www.w3.org/Graphics/SVG/1.1/DTD/svg11.dtd">
<!-- Created with Vectornator (http://vectornator.io/) -->
<svg height="100%" stroke-miterlimit="10" style="fill-rule:nonzero;clip-rule:evenodd;stroke-linecap:round;stroke-linejoin:round;" version="1.1" viewBox="0 0 1080 1080" width="100%" xml:space="preserve" xmlns="http://www.w3.org/2000/svg" xmlns:vectornator="http://vectornator.io" xmlns:xlink="http://www.w3.org/1999/xlink">
<defs/>
<g id="Calque-1" vectornator:layerName="Calque 1">
<g opacity="1" vectornator:layerName="Grouper 1">
<path d="M230.99 614.074L289.218 614.074L289.218 672.302L230.99 672.302L230.99 614.074Z" fill="#000000" fill-rule="nonzero" opacity="1" stroke="none" vectornator:layerName="Rectangle 1"/>
</g>
<path d="M289.218 555.845L347.446 555.845L347.446 614.074L289.218 614.074L289.218 555.845Z" fill="#000000" fill-rule="nonzero" opacity="1" stroke="none" vectornator:layerName="Rectangle 1"/>
<path d="M347.446 497.617L405.675 497.617L405.675 555.845L347.446 555.845L347.446 497.617Z" fill="#000000" fill-rule="nonzero" opacity="1" stroke="none" vectornator:layerName="Rectangle 2"/>
<path d="M405.675 439.389L463.903 439.389L463.903 497.617L405.675 497.617L405.675 439.389Z" fill="#000000" fill-rule="nonzero" opacity="1" stroke="none" vectornator:layerName="Rectangle 3"/>
<path d="M114.533 961.717L172.761 961.717L172.761 1019.94L114.533 1019.94L114.533 961.717Z" fill="#000000" fill-rule="nonzero" opacity="1" stroke="none" vectornator:layerName="Rectangle 13"/>
<path d="M172.761 961.717L230.99 961.717L230.99 1019.94L172.761 1019.94L172.761 961.717Z" fill="#000000" fill-rule="nonzero" opacity="1" stroke="none" vectornator:layerName="Rectangle 17"/>
<path d="M230.99 961.717L289.218 961.717L289.218 1019.94L230.99 1019.94L230.99 961.717Z" fill="#000000" fill-rule="nonzero" opacity="1" stroke="none" vectornator:layerName="Rectangle 18"/>
<path d="M56.3048 904.326L114.533 904.326L114.533 962.554L56.3048 962.554L56.3048 904.326Z" fill="#000000" fill-rule="nonzero" opacity="1" stroke="none" vectornator:layerName="Rectangle 16"/>
<path d="M56.3048 846.098L114.533 846.098L114.533 904.326L56.3048 904.326L56.3048 846.098Z" fill="#000000" fill-rule="nonzero" opacity="1" stroke="none" vectornator:layerName="Rectangle 14"/>
<path d="M172.761 845.26L230.99 845.26L230.99 903.488L172.761 903.488L172.761 845.26Z" fill="#808080" fill-rule="nonzero" opacity="1" stroke="none" vectornator:layerName="Rectangle 5"/>
<path d="M114.533 845.26L172.761 845.26L172.761 903.488L114.533 903.488L114.533 845.26Z" fill="#808080" fill-rule="nonzero" opacity="1" stroke="none" vectornator:layerName="Rectangle 6"/>
<path d="M522.131 613.236L580.36 613.236L580.36 671.464L522.131 671.464L522.131 613.236Z" fill="#515151" fill-rule="nonzero" opacity="1" stroke="none" vectornator:layerName="Rectangle 7"/>
<path d="M230.99 845.26L289.218 845.26L289.218 903.488L230.99 903.488L230.99 845.26Z" fill="#808080" fill-rule="nonzero" opacity="1" stroke="none" vectornator:layerName="Rectangle 51"/>
<path d="M230.99 903.488L289.218 903.488L289.218 961.717L230.99 961.717L230.99 903.488Z" fill="#505050" fill-rule="nonzero" opacity="1" stroke="none" vectornator:layerName="Rectangle 64"/>
<path d="M230.99 845.26L289.218 845.26L289.218 903.488L230.99 903.488L230.99 845.26Z" fill="#808080" fill-rule="nonzero" opacity="1" stroke="none" vectornator:layerName="Rectangle 65"/>
<path d="M580.36 496.779L638.588 496.779L638.588 555.008L580.36 555.008L580.36 496.779Z" fill="#808080" fill-rule="nonzero" opacity="1" stroke="none" vectornator:layerName="Rectangle 49"/>
<path d="M580.36 555.008L638.588 555.008L638.588 613.236L580.36 613.236L580.36 555.008Z" fill="#515151" fill-rule="nonzero" opacity="1" stroke="none" vectornator:layerName="Rectangle 52"/>
<path d="M638.588 439.389L696.816 439.389L696.816 497.617L638.588 497.617L638.588 439.389Z" fill="#808080" fill-rule="nonzero" opacity="1" stroke="none" vectornator:layerName="Rectangle 74"/>
<path d="M696.816 439.389L755.044 439.389L755.044 497.617L696.816 497.617L696.816 439.389Z" fill="#808080" fill-rule="nonzero" opacity="1" stroke="none" vectornator:layerName="Rectangle 75"/>
<path d="M755.044 439.389L813.273 439.389L813.273 497.617L755.044 497.617L755.044 439.389Z" fill="#515151" fill-rule="nonzero" opacity="1" stroke="none" vectornator:layerName="Rectangle 76"/>
<path d="M463.903 555.008L522.131 555.008L522.131 613.236L463.903 613.236L463.903 555.008Z" fill="#808080" fill-rule="nonzero" opacity="1" stroke="none" vectornator:layerName="Rectangle 53"/>
<path d="M580.36 381.16L638.588 381.16L638.588 439.389L580.36 439.389L580.36 381.16Z" fill="#808080" fill-rule="nonzero" opacity="1" stroke="none" vectornator:layerName="Rectangle 80"/>
<path d="M638.588 381.16L696.816 381.16L696.816 439.389L638.588 439.389L638.588 381.16Z" fill="#808080" fill-rule="nonzero" opacity="1" stroke="none" vectornator:layerName="Rectangle 81"/>
<path d="M696.816 381.16L755.044 381.16L755.044 439.389L696.816 439.389L696.816 381.16Z" fill="#808080" fill-rule="nonzero" opacity="1" stroke="none" vectornator:layerName="Rectangle 82"/>
<path d="M755.044 381.16L813.273 381.16L813.273 439.389L755.044 439.389L755.044 381.16Z" fill="#808080" fill-rule="nonzero" opacity="1" stroke="none" vectornator:layerName="Rectangle 83"/>
<path d="M813.273 381.16L871.501 381.16L871.501 439.389L813.273 439.389L813.273 381.16Z" fill="#808080" fill-rule="nonzero" opacity="1" stroke="none" vectornator:layerName="Rectangle 84"/>
<path d="M638.588 322.932L696.816 322.932L696.816 381.16L638.588 381.16L638.588 322.932Z" fill="#808080" fill-rule="nonzero" opacity="1" stroke="none" vectornator:layerName="Rectangle 85"/>
<path d="M696.816 322.932L755.044 322.932L755.044 381.16L696.816 381.16L696.816 322.932Z" fill="#808080" fill-rule="nonzero" opacity="1" stroke="none" vectornator:layerName="Rectangle 86"/>
<path d="M638.588 264.704L696.816 264.704L696.816 322.932L638.588 322.932L638.588 264.704Z" fill="#808080" fill-rule="nonzero" opacity="1" stroke="none" vectornator:layerName="Rectangle 87"/>
<path d="M638.588 206.475L696.816 206.475L696.816 264.704L638.588 264.704L638.588 206.475Z" fill="#808080" fill-rule="nonzero" opacity="1" stroke="none" vectornator:layerName="Rectangle 88"/>
<path d="M522.131 555.008L580.36 555.008L580.36 613.236L522.131 613.236L522.131 555.008Z" fill="#808080" fill-rule="nonzero" opacity="1" stroke="none" vectornator:layerName="Rectangle 54"/>
<path d="M405.675 671.464L463.903 671.464L463.903 729.693L405.675 729.693L405.675 671.464Z" fill="#808080" fill-rule="nonzero" opacity="1" stroke="none" vectornator:layerName="Rectangle 59"/>
<path d="M405.675 613.236L463.903 613.236L463.903 671.464L405.675 671.464L405.675 613.236Z" fill="#808080" fill-rule="nonzero" opacity="1" stroke="none" vectornator:layerName="Rectangle 48"/>
<path d="M522.131 439.389L580.36 439.389L580.36 497.617L522.131 497.617L522.131 439.389Z" fill="#808080" fill-rule="nonzero" opacity="1" stroke="none" vectornator:layerName="Rectangle 47"/>
<path d="M522.131 497.617L580.36 497.617L580.36 555.845L522.131 555.845L522.131 497.617Z" fill="#808080" fill-rule="nonzero" opacity="1" stroke="none" vectornator:layerName="Rectangle 50"/>
<path d="M463.903 613.236L522.131 613.236L522.131 671.464L463.903 671.464L463.903 613.236Z" fill="#808080" fill-rule="nonzero" opacity="1" stroke="none" vectornator:layerName="Rectangle 8"/>
<path d="M56.3048 787.869L114.533 787.869L114.533 846.098L56.3048 846.098L56.3048 787.869Z" fill="#000000" fill-rule="nonzero" opacity="1" stroke="none" vectornator:layerName="Rectangle 4"/>
<path d="M172.761 787.869L230.99 787.869L230.99 846.098L172.761 846.098L172.761 787.869Z" fill="#808080" fill-rule="nonzero" opacity="1" stroke="none" vectornator:layerName="Rectangle 9"/>
<path d="M347.446 613.236L405.675 613.236L405.675 671.464L347.446 671.464L347.446 613.236Z" fill="#808080" fill-rule="nonzero" opacity="1" stroke="none" vectornator:layerName="Rectangle 10"/>
<path d="M405.675 555.008L463.903 555.008L463.903 613.236L405.675 613.236L405.675 555.008Z" fill="#808080" fill-rule="nonzero" opacity="1" stroke="none" vectornator:layerName="Rectangle 11"/>
<path d="M463.903 497.617L522.131 497.617L522.131 555.845L463.903 555.845L463.903 497.617Z" fill="#808080" fill-rule="nonzero" opacity="1" stroke="none" vectornator:layerName="Rectangle 12"/>
<path d="M405.675 787.921L463.903 787.921L463.903 846.149L405.675 846.149L405.675 787.921Z" fill="#000000" fill-rule="nonzero" opacity="1" stroke="none" vectornator:layerName="Rectangle 15"/>
<path d="M463.903 729.693L522.131 729.693L522.131 787.921L463.903 787.921L463.903 729.693Z" fill="#000000" fill-rule="nonzero" opacity="1" stroke="none" vectornator:layerName="Rectangle 19"/>
<path d="M522.131 671.464L580.36 671.464L580.36 729.693L522.131 729.693L522.131 671.464Z" fill="#000000" fill-rule="nonzero" opacity="1" stroke="none" vectornator:layerName="Rectangle 20"/>
<path d="M580.36 613.236L638.588 613.236L638.588 671.464L580.36 671.464L580.36 613.236Z" fill="#000000" fill-rule="nonzero" opacity="1" stroke="none" vectornator:layerName="Rectangle 45"/>
<path d="M638.588 497.617L696.816 497.617L696.816 555.845L638.588 555.845L638.588 497.617Z" fill="#000000" fill-rule="nonzero" opacity="1" stroke="none" vectornator:layerName="Rectangle 21"/>
<path d="M871.501 439.389L929.729 439.389L929.729 497.617L871.501 497.617L871.501 439.389Z" fill="#000000" fill-rule="nonzero" opacity="1" stroke="none" vectornator:layerName="Rectangle 22"/>
<path d="M813.273 497.617L871.501 497.617L871.501 555.845L813.273 555.845L813.273 497.617Z" fill="#000000" fill-rule="nonzero" opacity="1" stroke="none" vectornator:layerName="Rectangle 41"/>
<path d="M755.044 497.617L813.273 497.617L813.273 555.845L755.044 555.845L755.044 497.617Z" fill="#000000" fill-rule="nonzero" opacity="1" stroke="none" vectornator:layerName="Rectangle 42"/>
<path d="M696.816 497.617L755.044 497.617L755.044 555.845L696.816 555.845L696.816 497.617Z" fill="#000000" fill-rule="nonzero" opacity="1" stroke="none" vectornator:layerName="Rectangle 43"/>
<path d="M580.36 439.389L638.588 439.389L638.588 497.617L580.36 497.617L580.36 439.389Z" fill="#000000" fill-rule="nonzero" opacity="1" stroke="none" vectornator:layerName="Rectangle 44"/>
<path d="M463.903 381.16L522.131 381.16L522.131 439.389L463.903 439.389L463.903 381.16Z" fill="#000000" fill-rule="nonzero" opacity="1" stroke="none" vectornator:layerName="Rectangle 23"/>
<path d="M522.131 381.16L580.36 381.16L580.36 439.389L522.131 439.389L522.131 381.16Z" fill="#000000" fill-rule="nonzero" opacity="1" stroke="none" vectornator:layerName="Rectangle 24"/>
<path d="M929.729 322.932L987.958 322.932L987.958 381.16L929.729 381.16L929.729 322.932Z" fill="#000000" fill-rule="nonzero" opacity="1" stroke="none" vectornator:layerName="Rectangle 25"/>
<path d="M522.131 206.475L580.36 206.475L580.36 264.704L522.131 264.704L522.131 206.475Z" fill="#000000" fill-rule="nonzero" opacity="1" stroke="none" vectornator:layerName="Rectangle 26"/>
<path d="M522.131 322.932L580.36 322.932L580.36 381.16L522.131 381.16L522.131 322.932Z" fill="#000000" fill-rule="nonzero" opacity="1" stroke="none" vectornator:layerName="Rectangle 27"/>
<path d="M929.729 381.16L987.958 381.16L987.958 439.389L929.729 439.389L929.729 381.16Z" fill="#000000" fill-rule="nonzero" opacity="1" stroke="none" vectornator:layerName="Rectangle 28"/>
<path d="M929.729 264.704L987.958 264.704L987.958 322.932L929.729 322.932L929.729 264.704Z" fill="#000000" fill-rule="nonzero" opacity="1" stroke="none" vectornator:layerName="Rectangle 29"/>
<path d="M522.131 264.704L580.36 264.704L580.36 322.932L522.131 322.932L522.131 264.704Z" fill="#000000" fill-rule="nonzero" opacity="1" stroke="none" vectornator:layerName="Rectangle 30"/>
<path d="M813.273 322.932L871.501 322.932L871.501 381.16L813.273 381.16L813.273 322.932Z" fill="#000000" fill-rule="nonzero" opacity="1" stroke="none" vectornator:layerName="Rectangle 31"/>
<path d="M580.36 148.247L638.588 148.247L638.588 206.475L580.36 206.475L580.36 148.247Z" fill="#000000" fill-rule="nonzero" opacity="1" stroke="none" vectornator:layerName="Rectangle 32"/>
<path d="M638.588 90.0188L696.816 90.0188L696.816 148.247L638.588 148.247L638.588 90.0188Z" fill="#000000" fill-rule="nonzero" opacity="1" stroke="none" vectornator:layerName="Rectangle 33"/>
<path d="M696.816 90.0188L755.044 90.0188L755.044 148.247L696.816 148.247L696.816 90.0188Z" fill="#000000" fill-rule="nonzero" opacity="1" stroke="none" vectornator:layerName="Rectangle 34"/>
<path d="M755.044 90.0188L813.273 90.0188L813.273 148.247L755.044 148.247L755.044 90.0188Z" fill="#000000" fill-rule="nonzero" opacity="1" stroke="none" vectornator:layerName="Rectangle 35"/>
<path d="M755.044 148.247L813.273 148.247L813.273 206.475L755.044 206.475L755.044 148.247Z" fill="#000000" fill-rule="nonzero" opacity="1" stroke="none" vectornator:layerName="Rectangle 36"/>
<path d="M871.501 264.704L929.729 264.704L929.729 322.932L871.501 322.932L871.501 264.704Z" fill="#000000" fill-rule="nonzero" opacity="1" stroke="none" vectornator:layerName="Rectangle 37"/>
<path d="M696.816 264.704L755.044 264.704L755.044 322.932L696.816 322.932L696.816 264.704Z" fill="#000000" fill-rule="nonzero" opacity="1" stroke="none" vectornator:layerName="Rectangle 38"/>
<path d="M230.99 787.032L289.218 787.032L289.218 845.26L230.99 845.26L230.99 787.032Z" fill="#808080" fill-rule="nonzero" opacity="1" stroke="none" vectornator:layerName="Rectangle 55"/>
<path d="M347.446 555.008L405.675 555.008L405.675 613.236L347.446 613.236L347.446 555.008Z" fill="#bababa" fill-rule="nonzero" opacity="1" stroke="none" vectornator:layerName="Rectangle 56"/>
<path d="M114.533 787.869L172.761 787.869L172.761 846.098L114.533 846.098L114.533 787.869Z" fill="#bababa" fill-rule="nonzero" opacity="1" stroke="none" vectornator:layerName="Rectangle 63"/>
<path d="M405.675 496.779L463.903 496.779L463.903 555.008L405.675 555.008L405.675 496.779Z" fill="#bababa" fill-rule="nonzero" opacity="1" stroke="none" vectornator:layerName="Rectangle 60"/>
<path d="M463.903 439.389L522.131 439.389L522.131 497.617L463.903 497.617L463.903 439.389Z" fill="#bababa" fill-rule="nonzero" opacity="1" stroke="none" vectornator:layerName="Rectangle 61"/>
<path d="M580.36 206.475L638.588 206.475L638.588 264.704L580.36 264.704L580.36 206.475Z" fill="#bababa" fill-rule="nonzero" opacity="1" stroke="none" vectornator:layerName="Rectangle 69"/>
<path d="M580.36 264.704L638.588 264.704L638.588 322.932L580.36 322.932L580.36 264.704Z" fill="#bababa" fill-rule="nonzero" opacity="1" stroke="none" vectornator:layerName="Rectangle 70"/>
<path d="M580.36 322.932L638.588 322.932L638.588 381.16L580.36 381.16L580.36 322.932Z" fill="#bababa" fill-rule="nonzero" opacity="1" stroke="none" vectornator:layerName="Rectangle 71"/>
<path d="M638.588 148.247L696.816 148.247L696.816 206.475L638.588 206.475L638.588 148.247Z" fill="#bababa" fill-rule="nonzero" opacity="1" stroke="none" vectornator:layerName="Rectangle 72"/>
<path d="M696.816 148.247L755.044 148.247L755.044 206.475L696.816 206.475L696.816 148.247Z" fill="#bababa" fill-rule="nonzero" opacity="1" stroke="none" vectornator:layerName="Rectangle 73"/>
<path d="M289.218 614.074L347.446 614.074L347.446 672.302L289.218 672.302L289.218 614.074Z" fill="#bababa" fill-rule="nonzero" opacity="1" stroke="none" vectornator:layerName="Rectangle 62"/>
<path d="M463.903 671.464L522.131 671.464L522.131 729.693L463.903 729.693L463.903 671.464Z" fill="#505050" fill-rule="nonzero" opacity="1" stroke="none" vectornator:layerName="Rectangle 57"/>
<path d="M696.816 206.475L755.044 206.475L755.044 264.704L696.816 264.704L696.816 206.475Z" fill="#000000" fill-rule="nonzero" opacity="1" stroke="none" vectornator:layerName="Rectangle 39"/>
<path d="M755.044 322.932L813.273 322.932L813.273 381.16L755.044 381.16L755.044 322.932Z" fill="#000000" fill-rule="nonzero" opacity="1" stroke="none" vectornator:layerName="Rectangle 40"/>
<path d="M638.588 555.845L696.816 555.845L696.816 614.074L638.588 614.074L638.588 555.845Z" fill="#000000" fill-rule="nonzero" opacity="1" stroke="none" vectornator:layerName="Rectangle 46"/>
<path d="M405.675 729.693L463.903 729.693L463.903 787.921L405.675 787.921L405.675 729.693Z" fill="#515151" fill-rule="nonzero" opacity="1" stroke="none" vectornator:layerName="Rectangle 58"/>
<g opacity="1" vectornator:layerName="Grouper 2">
<path d="M172.761 672.302L230.99 672.302L230.99 730.53L172.761 730.53L172.761 672.302Z" fill="#000000" fill-rule="nonzero" opacity="1" stroke="none" vectornator:layerName="Rectangle 1"/>
</g>
<path d="M347.446 729.693L405.675 729.693L405.675 787.921L347.446 787.921L347.446 729.693Z" fill="#808080" fill-rule="nonzero" opacity="1" stroke="none" vectornator:layerName="Rectangle 89"/>
<path d="M347.446 671.464L405.675 671.464L405.675 729.693L347.446 729.693L347.446 671.464Z" fill="#808080" fill-rule="nonzero" opacity="1" stroke="none" vectornator:layerName="Rectangle 90"/>
<path d="M289.218 671.464L347.446 671.464L347.446 729.693L289.218 729.693L289.218 671.464Z" fill="#808080" fill-rule="nonzero" opacity="1" stroke="none" vectornator:layerName="Rectangle 91"/>
<path d="M347.446 846.149L405.675 846.149L405.675 904.378L347.446 904.378L347.446 846.149Z" fill="#000000" fill-rule="nonzero" opacity="1" stroke="none" vectornator:layerName="Rectangle 92"/>
<path d="M230.99 672.302L289.218 672.302L289.218 730.53L230.99 730.53L230.99 672.302Z" fill="#bababa" fill-rule="nonzero" opacity="1" stroke="none" vectornator:layerName="Rectangle 93"/>
<path d="M347.446 787.921L405.675 787.921L405.675 846.149L347.446 846.149L347.446 787.921Z" fill="#515151" fill-rule="nonzero" opacity="1" stroke="none" vectornator:layerName="Rectangle 94"/>
<g opacity="1" vectornator:layerName="Grouper 3">
<path d="M114.533 731.368L172.761 731.368L172.761 789.596L114.533 789.596L114.533 731.368Z" fill="#000000" fill-rule="nonzero" opacity="1" stroke="none" vectornator:layerName="Rectangle 1"/>
</g>
<path d="M289.218 787.921L347.446 787.921L347.446 846.149L289.218 846.149L289.218 787.921Z" fill="#808080" fill-rule="nonzero" opacity="1" stroke="none" vectornator:layerName="Rectangle 95"/>
<path d="M289.218 729.693L347.446 729.693L347.446 787.921L289.218 787.921L289.218 729.693Z" fill="#808080" fill-rule="nonzero" opacity="1" stroke="none" vectornator:layerName="Rectangle 96"/>
<path d="M230.99 730.53L289.218 730.53L289.218 788.758L230.99 788.758L230.99 730.53Z" fill="#808080" fill-rule="nonzero" opacity="1" stroke="none" vectornator:layerName="Rectangle 97"/>
<path d="M289.218 903.488L347.446 903.488L347.446 961.717L289.218 961.717L289.218 903.488Z" fill="#000000" fill-rule="nonzero" opacity="1" stroke="none" vectornator:layerName="Rectangle 98"/>
<path d="M172.761 730.53L230.99 730.53L230.99 788.758L172.761 788.758L172.761 730.53Z" fill="#bababa" fill-rule="nonzero" opacity="1" stroke="none" vectornator:layerName="Rectangle 99"/>
<path d="M289.218 846.149L347.446 846.149L347.446 904.378L289.218 904.378L289.218 846.149Z" fill="#515151" fill-rule="nonzero" opacity="1" stroke="none" vectornator:layerName="Rectangle 100"/>
<path d="M172.761 903.488L230.99 903.488L230.99 961.717L172.761 961.717L172.761 903.488Z" fill="#808080" fill-rule="nonzero" opacity="1" stroke="none" vectornator:layerName="Rectangle 66"/>
<path d="M230.99 845.26L289.218 845.26L289.218 903.488L230.99 903.488L230.99 845.26Z" fill="#808080" fill-rule="nonzero" opacity="1" stroke="none" vectornator:layerName="Rectangle 68"/>
<path d="M114.533 903.488L172.761 903.488L172.761 961.717L114.533 961.717L114.533 903.488Z" fill="#808080" fill-rule="nonzero" opacity="1" stroke="none" vectornator:layerName="Rectangle 67"/>
<path d="M813.273 439.389L871.501 439.389L871.501 497.617L813.273 497.617L813.273 439.389Z" fill="#515151" fill-rule="nonzero" opacity="1" stroke="none" vectornator:layerName="Rectangle 77"/>
<path d="M871.501 381.16L929.729 381.16L929.729 439.389L871.501 439.389L871.501 381.16Z" fill="#515151" fill-rule="nonzero" opacity="1" stroke="none" vectornator:layerName="Rectangle 78"/>
<path d="M871.501 322.932L929.729 322.932L929.729 381.16L871.501 381.16L871.501 322.932Z" fill="#515151" fill-rule="nonzero" opacity="1" stroke="none" vectornator:layerName="Rectangle 79"/>
</g>
</svg>
